<svg width="279" height="226" viewBox="0 0 279 226" fill="none" xmlns="http://www.w3.org/2000/svg">
<path d="M227.955 95.4726V207.973C227.955 215.981 221.463 222.473 213.455 222.473H61.4546C53.4465 222.473 46.9546 215.981 46.9546 207.973V95.4726H227.955Z" fill="url(#paint0_linear_1_3)" stroke="#C52024"/>
<mask id="path-2-outside-1_1_3" maskUnits="userSpaceOnUse" x="41.2945" y="40.9726" width="194" height="62" fill="black">
<rect fill="white" x="41.2945" y="40.9726" width="194" height="62"/>
<path fill-rule="evenodd" clip-rule="evenodd" d="M54.317 41.9726C52.1411 41.9726 50.215 43.3798 49.5536 45.4528L42.5346 67.4528C42.2325 68.3998 42.2265 69.3527 42.4545 70.2264V96.9726C42.4545 99.734 44.6931 101.973 47.4545 101.973H228.455C231.216 101.973 233.455 99.734 233.455 96.9726V70.2264C233.683 69.3527 233.677 68.3998 233.374 67.4528L226.355 45.4528C225.694 43.3798 223.768 41.9726 221.592 41.9726H54.317Z"/>
</mask>
<path fill-rule="evenodd" clip-rule="evenodd" d="M54.317 41.9726C52.1411 41.9726 50.215 43.3798 49.5536 45.4528L42.5346 67.4528C42.2325 68.3998 42.2265 69.3527 42.4545 70.2264V96.9726C42.4545 99.734 44.6931 101.973 47.4545 101.973H228.455C231.216 101.973 233.455 99.734 233.455 96.9726V70.2264C233.683 69.3527 233.677 68.3998 233.374 67.4528L226.355 45.4528C225.694 43.3798 223.768 41.9726 221.592 41.9726H54.317Z" fill="#F9443D"/>
<path d="M49.5536 45.4528L50.5063 45.7568V45.7568L49.5536 45.4528ZM42.5346 67.4528L43.4873 67.7568H43.4873L42.5346 67.4528ZM42.4545 70.2264H43.4545V70.098L43.4221 69.9739L42.4545 70.2264ZM233.455 70.2264L232.487 69.9739L232.455 70.0981V70.2264H233.455ZM233.374 67.4528L234.327 67.1489V67.1489L233.374 67.4528ZM226.355 45.4528L225.403 45.7568V45.7568L226.355 45.4528ZM50.5063 45.7568C51.0354 44.0984 52.5763 42.9726 54.317 42.9726V40.9726C51.7059 40.9726 49.3946 42.6613 48.6009 45.1489L50.5063 45.7568ZM43.4873 67.7568L50.5063 45.7568L48.6009 45.1489L41.5819 67.1489L43.4873 67.7568ZM43.4221 69.9739C43.2406 69.2783 43.2443 68.5185 43.4873 67.7568L41.5819 67.1489C41.2207 68.281 41.2124 69.427 41.4869 70.4789L43.4221 69.9739ZM43.4545 96.9726V70.2264H41.4545V96.9726H43.4545ZM47.4545 100.973C45.2454 100.973 43.4545 99.1817 43.4545 96.9726H41.4545C41.4545 100.286 44.1408 102.973 47.4545 102.973V100.973ZM228.455 100.973H47.4545V102.973H228.455V100.973ZM232.455 96.9726C232.455 99.1817 230.664 100.973 228.455 100.973V102.973C231.768 102.973 234.455 100.286 234.455 96.9726H232.455ZM232.455 70.2264V96.9726H234.455V70.2264H232.455ZM232.422 67.7568C232.665 68.5186 232.668 69.2783 232.487 69.9739L234.422 70.4789C234.697 69.427 234.688 68.281 234.327 67.1489L232.422 67.7568ZM225.403 45.7568L232.422 67.7568L234.327 67.1489L227.308 45.1489L225.403 45.7568ZM221.592 42.9726C223.333 42.9726 224.874 44.0984 225.403 45.7568L227.308 45.1489C226.514 42.6613 224.203 40.9726 221.592 40.9726V42.9726ZM54.317 42.9726H221.592V40.9726H54.317V42.9726Z" fill="#C52024" mask="url(#path-2-outside-1_1_3)"/>
<rect opacity="0.1" x="47.4546" y="95.9726" width="180" height="19" fill="black"/>
<path d="M42.4546 68.9726H233.455V96.9726C233.455 99.734 231.216 101.973 228.455 101.973H47.4546C44.6932 101.973 42.4546 99.734 42.4546 96.9726V68.9726Z" fill="url(#paint1_linear_1_3)"/>
<path d="M49.5537 45.4528C50.2151 43.3798 52.1412 41.9726 54.3171 41.9726H221.592C223.768 41.9726 225.694 43.3798 226.356 45.4528L233.375 67.4528C234.404 70.6783 231.997 73.9726 228.611 73.9726H47.2982C43.9125 73.9726 41.5056 70.6783 42.5347 67.4528L49.5537 45.4528Z" fill="#F9443D"/>
<path d="M239.409 38.4008C251.331 36.9958 264.634 37.3654 276.142 42.0092L277.182 42.4291L276.174 42.9213L253.285 54.1215C257.989 59.0983 267.516 70.5307 271.418 80.2865L272.029 81.8109L270.672 80.8851C265.448 77.3192 256.1 71.8342 245.066 66.9926C234.028 62.1493 221.335 57.9646 209.413 56.9711L208.884 56.9271L208.96 56.4017L210.46 45.9017L210.501 45.6185L210.764 45.5101C216.888 42.9936 227.482 39.8063 239.409 38.4008Z" fill="url(#paint2_linear_1_3)" stroke="url(#paint3_linear_1_3)"/>
<path d="M39.0005 38.4008C27.0787 36.9958 13.7756 37.3654 2.26712 42.0092L1.22708 42.4291L2.23489 42.9213L25.1245 54.1215C20.4199 59.0983 10.8932 70.5307 6.99075 80.2865L6.3804 81.8109L7.73685 80.8851C12.9614 77.3192 22.3094 71.8342 33.3433 66.9926C44.381 62.1493 57.0741 57.9646 68.9966 56.9711L69.5249 56.9271L69.4497 56.4017L67.9497 45.9017L67.9087 45.6185L67.6451 45.5101C61.5215 42.9936 50.9269 39.8063 39.0005 38.4008Z" fill="url(#paint4_linear_1_3)" stroke="url(#paint5_linear_1_3)"/>
<path d="M201.464 0.934097C207.306 -0.0965006 212.658 0.613849 216.777 4.09035C227.713 13.3203 232.848 26.0583 231.645 37.1275C230.438 48.235 222.851 57.5932 208.537 59.9663C196.568 61.9505 183.923 62.3329 172.932 61.1489C161.964 59.9674 152.558 57.217 147.141 52.8628L146.904 52.6714L146.964 52.3726L150.964 32.8726L150.997 32.7183L151.11 32.6109C158.041 26.0139 170.358 15.5115 182.946 8.33058C189.237 4.7413 195.627 1.96405 201.464 0.934097Z" fill="url(#paint6_linear_1_3)" stroke="url(#paint7_linear_1_3)"/>
<path d="M77.3064 0.934097C71.4651 -0.0965006 66.1131 0.613849 61.9939 4.09035C51.0581 13.3203 45.9228 26.0583 47.1258 37.1275C48.333 48.235 55.9198 57.5932 70.2342 59.9663C82.2026 61.9505 94.8479 62.3329 105.839 61.1489C116.806 59.9674 126.213 57.217 131.63 52.8628L131.867 52.6714L131.806 52.3726L127.806 32.8726L127.774 32.7183L127.661 32.6109C120.73 26.0139 108.412 15.5115 95.825 8.33058C89.5333 4.7413 83.1437 1.96405 77.3064 0.934097Z" fill="url(#paint8_linear_1_3)" stroke="url(#paint9_linear_1_3)"/>
<path d="M200.651 37.1557C207.838 36.0358 214.228 36.2388 218.238 38.1098C220.259 39.0529 221.72 40.4426 222.325 42.3373C222.927 44.2234 222.648 46.5096 221.409 49.183C216.449 59.8831 204.098 63.8056 191.474 64.3403C178.821 64.8761 165.661 62.0252 158.751 58.9291L158.136 58.6537L158.577 58.1449C168.21 47.025 186.255 39.3989 200.651 37.1557Z" fill="#B52930" stroke="#9D131A"/>
<path d="M76.6223 38.0839C69.3145 37.0471 62.8646 37.292 58.9505 39.0995C56.9779 40.0105 55.5855 41.3506 55.1214 43.1796C54.6608 44.9953 55.1491 47.1639 56.6399 49.664C59.6323 54.682 64.6103 57.9735 70.4505 60.0497C76.2903 62.1257 83.0304 63.0009 89.6136 63.164C96.2 63.3272 102.652 62.778 107.929 61.9911C113.192 61.2063 117.328 60.1791 119.263 59.3691L119.9 59.1025L119.448 58.581C114.619 53.0075 107.564 48.4047 99.9085 44.9384C92.2492 41.4703 83.9567 39.1245 76.6223 38.0839Z" fill="#B52930" stroke="#9D131A"/>
<path d="M134.922 26.3056C136.483 26.3163 138.326 26.4145 140.469 26.4725C142.588 26.5299 144.352 26.559 145.805 26.6327C147.257 26.7063 148.441 26.826 149.398 27.0751C150.365 27.3266 151.131 27.7173 151.721 28.3515C152.308 28.981 152.679 29.8069 152.94 30.8515C153.426 32.7945 154.529 35.2529 155.527 37.2489C156.024 38.2417 156.489 39.1106 156.831 39.7313C157.001 40.0415 157.14 40.2898 157.237 40.4599C157.285 40.5446 157.323 40.6101 157.348 40.6542C157.361 40.6761 157.371 40.6929 157.378 40.704C157.379 40.7068 157.38 40.7097 157.382 40.7118L157.383 40.7128C157.385 40.7159 157.387 40.7207 157.39 40.7265C157.398 40.738 157.408 40.7544 157.422 40.7763C157.448 40.8201 157.487 40.8849 157.536 40.9677C157.634 41.1332 157.773 41.3734 157.939 41.6747C158.272 42.2775 158.716 43.1276 159.161 44.1181C160.043 46.083 160.955 48.6628 160.955 50.9725C160.955 52.3673 159.893 53.3682 158.494 54.079C157.073 54.8007 155.14 55.3142 153.04 55.6776C148.838 56.4045 143.815 56.5552 140.464 56.4725C131.487 56.8259 125.051 55.2755 121.379 52.9638C119.542 51.8078 118.348 50.4295 117.93 48.9559C117.505 47.4549 117.912 45.9491 119.082 44.6395C121.153 42.3214 121.898 40.7169 122.487 38.9735C123.082 37.2106 123.541 35.2118 125.007 32.2509C126.675 28.8806 128.355 27.3062 130.808 26.6767C132.002 26.3703 133.353 26.2948 134.922 26.3056Z" fill="url(#paint10_linear_1_3)" stroke="url(#paint11_linear_1_3)"/>
<rect x="116.955" y="53.4726" width="46" height="172" rx="8.5" fill="url(#paint12_linear_1_3)" stroke="#C52024"/>
<defs>
<linearGradient id="paint0_linear_1_3" x1="227.455" y1="145.973" x2="47.4546" y2="145.973" gradientUnits="userSpaceOnUse">
<stop stop-color="#FA6157"/>
<stop offset="0.0983215" stop-color="#C52024"/>
<stop offset="0.917205" stop-color="#CD3236"/>
<stop offset="1" stop-color="#FA6157"/>
</linearGradient>
<linearGradient id="paint1_linear_1_3" x1="42.4546" y1="101.973" x2="233.455" y2="101.973" gradientUnits="userSpaceOnUse">
<stop stop-color="#FA6157"/>
<stop offset="0.0885729" stop-color="#CD3236"/>
<stop offset="0.884867" stop-color="#CD3236"/>
<stop offset="1" stop-color="#FA6157"/>
</linearGradient>
<linearGradient id="paint2_linear_1_3" x1="270.455" y1="40.9726" x2="229.955" y2="67.9726" gradientUnits="userSpaceOnUse">
<stop offset="0.169137" stop-color="#F6E343"/>
<stop offset="1" stop-color="#F9443D"/>
</linearGradient>
<linearGradient id="paint3_linear_1_3" x1="267.955" y1="39.9726" x2="236.955" y2="61.4726" gradientUnits="userSpaceOnUse">
<stop stop-color="#F8DF46"/>
<stop offset="1" stop-color="#C52024"/>
</linearGradient>
<linearGradient id="paint4_linear_1_3" x1="7.95462" y1="40.9726" x2="48.4546" y2="67.9726" gradientUnits="userSpaceOnUse">
<stop offset="0.169137" stop-color="#F6E343"/>
<stop offset="1" stop-color="#F9443D"/>
</linearGradient>
<linearGradient id="paint5_linear_1_3" x1="10.4546" y1="39.9726" x2="41.4546" y2="61.4726" gradientUnits="userSpaceOnUse">
<stop stop-color="#F8DF46"/>
<stop offset="1" stop-color="#C52024"/>
</linearGradient>
<linearGradient id="paint6_linear_1_3" x1="226.455" y1="17.9726" x2="155.455" y2="50.9726" gradientUnits="userSpaceOnUse">
<stop stop-color="#FBC33E"/>
<stop offset="0.0995261" stop-color="#F6E343"/>
<stop offset="0.494792" stop-color="#FFCC50"/>
<stop offset="1" stop-color="#F94E3E"/>
</linearGradient>
<linearGradient id="paint7_linear_1_3" x1="221.228" y1="3.55738" x2="179.153" y2="29.3597" gradientUnits="userSpaceOnUse">
<stop stop-color="#C57920"/>
<stop offset="1" stop-color="#F8DF46"/>
</linearGradient>
<linearGradient id="paint8_linear_1_3" x1="52.3162" y1="17.9726" x2="123.316" y2="50.9726" gradientUnits="userSpaceOnUse">
<stop stop-color="#FBC33E"/>
<stop offset="0.0995261" stop-color="#F6E343"/>
<stop offset="0.494792" stop-color="#FFCC50"/>
<stop offset="1" stop-color="#F94E3E"/>
</linearGradient>
<linearGradient id="paint9_linear_1_3" x1="57.5431" y1="3.55738" x2="99.6175" y2="29.3597" gradientUnits="userSpaceOnUse">
<stop stop-color="#C57920"/>
<stop offset="1" stop-color="#F8DF46"/>
</linearGradient>
<linearGradient id="paint10_linear_1_3" x1="139.361" y1="26.8046" x2="139.361" y2="56.0228" gradientUnits="userSpaceOnUse">
<stop stop-color="#F33A36"/>
<stop offset="1" stop-color="#FFCC50"/>
</linearGradient>
<linearGradient id="paint11_linear_1_3" x1="139.361" y1="26.8046" x2="139.361" y2="56.0228" gradientUnits="userSpaceOnUse">
<stop stop-color="#FEB74D"/>
<stop offset="1" stop-color="#F54E3A"/>
</linearGradient>
<linearGradient id="paint12_linear_1_3" x1="139.955" y1="53.9726" x2="139.955" y2="224.973" gradientUnits="userSpaceOnUse">
<stop stop-color="#FF6B39"/>
<stop offset="0.125" stop-color="#FBC33E"/>
<stop offset="0.682292" stop-color="#FBC33E"/>
<stop offset="1" stop-color="#FF6B39"/>
</linearGradient>
</defs>
</svg>
