<svg width="53" height="63" viewBox="0 0 53 63" fill="none" xmlns="http://www.w3.org/2000/svg">
<path d="M10.4884 19.2855C10.1673 22.4777 9.94202 28.1271 11.9641 30.5318C11.9641 30.5318 11.0122 24.3259 19.5456 16.5396C22.9814 13.4051 23.7756 9.14184 22.5759 5.94437C21.8944 4.133 20.6496 2.63665 19.5681 1.59183C18.9373 0.977539 19.4217 -0.0357798 20.3398 0.000972663C25.8935 0.231988 34.8944 1.67058 38.7189 10.6172C40.3974 14.5445 40.5213 18.603 39.7215 22.7298C39.2145 25.3654 37.4121 31.2248 41.5239 31.9441C44.4585 32.4587 45.8779 30.285 46.5144 28.7204C46.7791 28.0694 47.6972 27.9066 48.1929 28.4264C53.1496 33.682 53.572 39.8722 52.5469 45.2013C50.5642 55.5025 39.3723 63 28.2535 63C14.3636 63 3.30684 55.5917 0.439857 42.1823C-0.714822 36.7692 -0.129032 26.0585 8.82677 18.498C9.49142 17.9309 10.5785 18.435 10.4884 19.2855Z" fill="url(#paint0_radial_19_458)"/>
<path d="M33.1729 38.499C28.1271 32.3449 30.3863 25.3228 31.6241 22.5245C31.7907 22.1563 31.3466 21.8091 30.9969 22.0353C28.8265 23.4344 24.3802 26.7272 22.3097 31.3612C19.5065 37.6259 19.7063 40.6925 21.3661 44.4376C22.3652 46.6941 21.2051 47.1728 20.6222 47.2569C20.0561 47.3411 19.5343 46.9834 19.118 46.6099C17.9205 45.5202 17.0671 44.1359 16.6533 42.6124C16.5645 42.2862 16.1149 42.1968 15.9095 42.4651C14.3553 44.5007 13.5504 47.7671 13.5115 50.0763C13.3894 57.2141 19.612 63.0001 27.139 63.0001C36.6255 63.0001 43.5364 53.0587 38.0854 44.7479C36.5034 42.3283 35.0158 40.7451 33.1729 38.499Z" fill="url(#paint1_radial_19_458)"/>
<defs>
<radialGradient id="paint0_radial_19_458" cx="0" cy="0" r="1" gradientTransform="matrix(-39.7587 -0.160843 -0.28348 60.8092 25.5025 63.1632)" gradientUnits="userSpaceOnUse">
<stop offset="0.314" stop-color="#FF9800"/>
<stop offset="0.662" stop-color="#FF6D00"/>
<stop offset="0.972" stop-color="#F44336"/>
</radialGradient>
<radialGradient id="paint1_radial_19_458" cx="0" cy="0" r="1" gradientTransform="matrix(-0.41409 38.8464 30.8518 0.295262 27.6608 26.2109)" gradientUnits="userSpaceOnUse">
<stop offset="0.214" stop-color="#FFF176"/>
<stop offset="0.328" stop-color="#FFF27D"/>
<stop offset="0.487" stop-color="#FFF48F"/>
<stop offset="0.672" stop-color="#FFF7AD"/>
<stop offset="0.793" stop-color="#FFF9C4"/>
<stop offset="0.822" stop-color="#FFF8BD" stop-opacity="0.804"/>
<stop offset="0.863" stop-color="#FFF6AB" stop-opacity="0.529"/>
<stop offset="0.91" stop-color="#FFF38D" stop-opacity="0.209"/>
<stop offset="0.941" stop-color="#FFF176" stop-opacity="0"/>
</radialGradient>
</defs>
</svg>
