<svg width="24" height="24" viewBox="0 0 24 24" fill="none" xmlns="http://www.w3.org/2000/svg">
<path d="M15.57 1.11753C13.792 1.01522 10.7579 0.909538 7.76652 1.12828C6.77191 1.20101 5.91317 1.84395 5.55938 2.77375C4.05099 6.738 3.33242 10.3946 3.02628 12.3319C2.83423 13.5472 3.71756 14.6308 4.93252 14.7143C5.97076 14.7855 7.49562 14.8594 9.27608 14.8496C9.08636 16.3908 8.88868 18.4466 8.69246 20.6582C8.51673 22.6394 10.899 23.8304 12.317 22.3109C15.9573 18.4104 19.2944 14.0728 21.1246 11.6007C22.1314 10.2408 21.2446 8.33851 19.5255 8.29379C18.733 8.27315 17.761 8.2613 16.6172 8.27121C16.9555 6.79564 17.2613 5.19314 17.5425 3.64601C17.7708 2.38951 16.8708 1.19239 15.57 1.11753Z" fill="#005693"/>
</svg>
