<svg width="40" height="150" viewBox="0 0 40 150" fill="none" xmlns="http://www.w3.org/2000/svg">
<ellipse cx="30" cy="75" rx="10" ry="75" fill="#6D5000"/>
<path d="M30 0H10V76H30V0Z" fill="#6D5000"/>
<path d="M30 76H10V150H30V76Z" fill="#6D5000"/>
<ellipse cx="10" cy="75" rx="10" ry="75" fill="#FDC93A"/>
<ellipse cx="10" cy="75" rx="8" ry="60" fill="#6D5000"/>
<path d="M13.2 90.1871C13.2 93.4401 13.0898 96.4979 12.8694 99.3605C12.6578 102.223 12.3405 104.63 11.9173 106.582C11.503 108.534 11.0094 109.705 10.4364 110.095V118H9.57685V110.095C8.7482 109.51 8.07822 107.591 7.56693 104.338C7.05564 101.085 6.79999 96.7907 6.79999 91.4558H8.41321C8.43966 93.9931 8.54985 96.1075 8.74379 97.7991C8.93773 99.4256 9.21541 100.467 9.57685 100.922V79.4524C8.98621 78.3463 8.50577 77.2403 8.13552 76.1343C7.76528 74.9633 7.44792 73.1416 7.18346 70.6693C6.92781 68.1971 6.79999 64.814 6.79999 60.5201C6.79999 55.1202 7.05564 50.6636 7.56693 47.1504C8.07822 43.5721 8.7482 41.4902 9.57685 40.9047V33H10.4364V40.9047C11.2121 41.4252 11.8336 43.2468 12.3008 46.3697C12.7768 49.4275 13.0457 53.6563 13.1074 59.0563H11.4942C11.4678 57.0394 11.362 55.2503 11.1768 53.6889C10.9917 52.0624 10.7449 50.9564 10.4364 50.3708V71.4501C11.027 72.491 11.5074 73.597 11.8777 74.7681C12.2479 75.8741 12.5609 77.6632 12.8165 80.1355C13.0722 82.5427 13.2 85.8932 13.2 90.1871ZM8.33387 59.9346C8.33387 62.602 8.43966 64.6839 8.65123 66.1803C8.87161 67.6766 9.18015 68.8802 9.57685 69.791V50.0781C9.19778 50.4034 8.89365 51.4118 8.66445 53.1033C8.44406 54.7949 8.33387 57.0719 8.33387 59.9346ZM10.4364 100.922C10.8242 100.467 11.1284 99.328 11.3487 97.5063C11.5691 95.6196 11.6793 93.375 11.6793 90.7727C11.6793 88.1703 11.5691 86.1535 11.3487 84.7222C11.1372 83.2258 10.833 82.0222 10.4364 81.1114V100.922Z" fill="#FCAE1D"/>
</svg>
