<svg width="135" height="151" viewBox="0 0 135 151" fill="none" xmlns="http://www.w3.org/2000/svg">
<ellipse cx="60" cy="75" rx="60" ry="75" fill="#6D5000"/>
<path d="M78 0H58V10.5H78V0Z" fill="#6D5000"/>
<path d="M78 140H58V150.5H78V140Z" fill="#6D5000"/>
<ellipse cx="75" cy="75" rx="60" ry="75" fill="#FDC93A"/>
<ellipse cx="75" cy="75" rx="48" ry="60" fill="#6D5000"/>
<path d="M94.1998 90.1871C94.1998 93.4401 93.5386 96.4979 92.2163 99.3605C90.9469 102.223 89.0428 104.63 86.5039 106.582C84.018 108.534 81.056 109.705 77.618 110.095V118H72.461V110.095C67.4891 109.51 63.4692 107.591 60.4015 104.338C57.3337 101.085 55.7998 96.7907 55.7998 91.4558H65.4791C65.6378 93.9931 66.299 96.1075 67.4626 97.7991C68.6263 99.4256 70.2924 100.467 72.461 100.922V79.4524C68.9172 78.3463 66.0345 77.2403 63.813 76.1343C61.5915 74.9633 59.6874 73.1416 58.1006 70.6693C56.5667 68.1971 55.7998 64.814 55.7998 60.5201C55.7998 55.1202 57.3337 50.6636 60.4015 47.1504C63.4692 43.5721 67.4891 41.4902 72.461 40.9047V33H77.618V40.9047C82.2725 41.4252 86.0015 43.2468 88.8048 46.3697C91.661 49.4275 93.2742 53.6563 93.6444 59.0563H83.9651C83.8064 57.0394 83.1717 55.2503 82.061 53.6889C80.9502 52.0624 79.4692 50.9564 77.618 50.3708V71.4501C81.1618 72.491 84.0444 73.597 86.2659 74.7681C88.4874 75.8741 90.3651 77.6632 91.899 80.1355C93.4329 82.5427 94.1998 85.8932 94.1998 90.1871ZM65.0031 59.9346C65.0031 62.602 65.6378 64.6839 66.9072 66.1803C68.2296 67.6766 70.0808 68.8802 72.461 69.791V50.0781C70.1866 50.4034 68.3618 51.4118 66.9866 53.1033C65.6643 54.7949 65.0031 57.0719 65.0031 59.9346ZM77.618 100.922C79.9453 100.467 81.7701 99.328 83.0924 97.5063C84.4147 95.6196 85.0758 93.375 85.0758 90.7727C85.0758 88.1703 84.4147 86.1535 83.0924 84.7222C81.8229 83.2258 79.9982 82.0222 77.618 81.1114V100.922Z" fill="#FCAE1D"/>
</svg>
