<svg width="21" height="150" viewBox="0 0 21 150" fill="none" xmlns="http://www.w3.org/2000/svg">
<ellipse cx="20.5" cy="75" rx="0.5" ry="75" fill="#6D5000"/>
<path d="M21 0H1V91H21V0Z" fill="#6D5000"/>
<path d="M21 74H0V150H21V74Z" fill="#6D5000"/>
<ellipse cx="0.5" cy="75" rx="0.5" ry="75" fill="#FDC93A"/>
<ellipse cx="0.499976" cy="75" rx="0.4" ry="60" fill="#6D5000"/>
<path d="M0.660027 90.1871C0.660027 93.4401 0.654517 96.4979 0.643498 99.3605C0.632919 102.223 0.617052 104.63 0.595895 106.582C0.575178 108.534 0.550495 109.705 0.521845 110.095V118H0.47887V110.095C0.437437 109.51 0.403939 107.591 0.378374 104.338C0.352809 101.085 0.340027 96.7907 0.340027 91.4558H0.420688C0.42201 93.9931 0.42752 96.1075 0.437217 97.7991C0.446914 99.4256 0.460798 100.467 0.47887 100.922V79.4524C0.449338 78.3463 0.425316 77.2403 0.406804 76.1343C0.388291 74.9633 0.372424 73.1416 0.3592 70.6693C0.346418 68.1971 0.340027 64.814 0.340027 60.5201C0.340027 55.1202 0.352809 50.6636 0.378374 47.1504C0.403939 43.5721 0.437437 41.4902 0.47887 40.9047V33H0.521845V40.9047C0.560633 41.4252 0.591707 43.2468 0.615068 46.3697C0.63887 49.4275 0.652313 53.6563 0.655399 59.0563H0.574738C0.573415 57.0394 0.568126 55.2503 0.55887 53.6889C0.549614 52.0624 0.537272 50.9564 0.521845 50.3708V71.4501C0.551377 72.491 0.575399 73.597 0.593911 74.7681C0.612424 75.8741 0.628071 77.6632 0.640853 80.1355C0.653636 82.5427 0.660027 85.8932 0.660027 90.1871ZM0.416721 59.9346C0.416721 62.602 0.42201 64.6839 0.432589 66.1803C0.443608 67.6766 0.459035 68.8802 0.47887 69.791V50.0781C0.459917 50.4034 0.44471 51.4118 0.43325 53.1033C0.422231 54.7949 0.416721 57.0719 0.416721 59.9346ZM0.521845 100.922C0.541239 100.467 0.556446 99.328 0.567465 97.5063C0.578484 95.6196 0.583994 93.375 0.583994 90.7727C0.583994 88.1703 0.578484 86.1535 0.567465 84.7222C0.556886 83.2258 0.54168 82.0222 0.521845 81.1114V100.922Z" fill="#FCAE1D"/>
</svg>
