<svg width="140" height="151" viewBox="0 0 140 151" fill="none" xmlns="http://www.w3.org/2000/svg">
<ellipse cx="65" cy="75" rx="65" ry="75" fill="#6D5000"/>
<path d="M80 0H60V10.5H80V0Z" fill="#6D5000"/>
<path d="M80 140H60V150.5H80V140Z" fill="#6D5000"/>
<ellipse cx="75" cy="75" rx="65" ry="75" fill="#FDC93A"/>
<ellipse cx="75" cy="75" rx="52" ry="60" fill="#6D5000"/>
<path d="M95.8002 90.1871C95.8002 93.4401 95.0839 96.4979 93.6514 99.3605C92.2762 102.223 90.2134 104.63 87.463 106.582C84.7699 108.534 81.5611 109.705 77.8366 110.095V118H72.2498V110.095C66.8636 109.51 62.5087 107.591 59.1853 104.338C55.8619 101.085 54.2002 96.7907 54.2002 91.4558H64.6861C64.858 93.9931 65.5743 96.1075 66.8349 97.7991C68.0955 99.4256 69.9005 100.467 72.2498 100.922V79.4524C68.4107 78.3463 65.2878 77.2403 62.8812 76.1343C60.4746 74.9633 58.4118 73.1416 56.6928 70.6693C55.031 68.1971 54.2002 64.814 54.2002 60.5201C54.2002 55.1202 55.8619 50.6636 59.1853 47.1504C62.5087 43.5721 66.8636 41.4902 72.2498 40.9047V33H77.8366V40.9047C82.879 41.4252 86.9187 43.2468 89.9556 46.3697C93.0498 49.4275 94.7974 53.6563 95.1985 59.0563H84.7126C84.5407 57.0394 83.8531 55.2503 82.6498 53.6889C81.4465 52.0624 79.8421 50.9564 77.8366 50.3708V71.4501C81.6757 72.491 84.7985 73.597 87.2052 74.7681C89.6118 75.8741 91.6459 77.6632 93.3076 80.1355C94.9693 82.5427 95.8002 85.8932 95.8002 90.1871ZM64.1704 59.9346C64.1704 62.602 64.858 64.6839 66.2333 66.1803C67.6658 67.6766 69.6713 68.8802 72.2498 69.791V50.0781C69.7859 50.4034 67.809 51.4118 66.3192 53.1033C64.8867 54.7949 64.1704 57.0719 64.1704 59.9346ZM77.8366 100.922C80.3578 100.467 82.3346 99.328 83.7671 97.5063C85.1996 95.6196 85.9159 93.375 85.9159 90.7727C85.9159 88.1703 85.1996 86.1535 83.7671 84.7222C82.3919 83.2258 80.4151 82.0222 77.8366 81.1114V100.922Z" fill="#FCAE1D"/>
</svg>
