<svg width="120" height="150" viewBox="0 0 120 150" fill="none" xmlns="http://www.w3.org/2000/svg">
<ellipse cx="70" cy="75" rx="50" ry="75" fill="#6D5000"/>
<path d="M68 0H50V11H68V0Z" fill="#6D5000"/>
<path d="M68 140H50V150H68V140Z" fill="#6D5000"/>
<ellipse cx="50" cy="75" rx="50" ry="75" fill="#FDC93A"/>
<ellipse cx="50" cy="75" rx="40" ry="60" fill="#6D5000"/>
<path d="M66 90.1871C66 93.4401 65.449 96.4979 64.3471 99.3605C63.2893 102.223 61.7025 104.63 59.5868 106.582C57.5152 108.534 55.0468 109.705 52.1818 110.095V118H47.8843V110.095C43.741 109.51 40.3912 107.591 37.8347 104.338C35.2782 101.085 34 96.7907 34 91.4558H42.0661C42.1983 93.9931 42.7493 96.1075 43.719 97.7991C44.6887 99.4256 46.0771 100.467 47.8843 100.922V79.4524C44.9311 78.3463 42.5289 77.2403 40.6777 76.1343C38.8264 74.9633 37.2397 73.1416 35.9174 70.6693C34.6391 68.1971 34 64.814 34 60.5201C34 55.1202 35.2782 50.6636 37.8347 47.1504C40.3912 43.5721 43.741 41.4902 47.8843 40.9047V33H52.1818V40.9047C56.0606 41.4252 59.168 43.2468 61.5041 46.3697C63.8843 49.4275 65.2287 53.6563 65.5372 59.0563H57.4711C57.3388 57.0394 56.8099 55.2503 55.8843 53.6889C54.9587 52.0624 53.7245 50.9564 52.1818 50.3708V71.4501C55.135 72.491 57.5372 73.597 59.3884 74.7681C61.2397 75.8741 62.8044 77.6632 64.0826 80.1355C65.3609 82.5427 66 85.8932 66 90.1871ZM41.6694 59.9346C41.6694 62.602 42.1983 64.6839 43.2562 66.1803C44.3581 67.6766 45.9008 68.8802 47.8843 69.791V50.0781C45.989 50.4034 44.4683 51.4118 43.3223 53.1033C42.2204 54.7949 41.6694 57.0719 41.6694 59.9346ZM52.1818 100.922C54.1212 100.467 55.6419 99.328 56.7438 97.5063C57.8457 95.6196 58.3967 93.375 58.3967 90.7727C58.3967 88.1703 57.8457 86.1535 56.7438 84.7222C55.6859 83.2258 54.1653 82.0222 52.1818 81.1114V100.922Z" fill="#FCAE1D"/>
</svg>
