<svg width="110" height="151" viewBox="0 0 110 151" fill="none" xmlns="http://www.w3.org/2000/svg">
<ellipse cx="45" cy="75" rx="45" ry="75" fill="#6D5000"/>
<path d="M65 0H45V10.5H65V0Z" fill="#6D5000"/>
<path d="M65 140H45V150.5H65V140Z" fill="#6D5000"/>
<ellipse cx="65" cy="75" rx="45" ry="75" fill="#FDC93A"/>
<ellipse cx="65" cy="75" rx="36" ry="60" fill="#6D5000"/>
<path d="M79.4001 90.1871C79.4001 93.4401 78.9042 96.4979 77.9125 99.3605C76.9604 102.223 75.5323 104.63 73.6282 106.582C71.7637 108.534 69.5422 109.705 66.9637 110.095V118H63.096V110.095C59.367 109.51 56.3522 107.591 54.0513 104.338C51.7505 101.085 50.6001 96.7907 50.6001 91.4558H57.8596C57.9786 93.9931 58.4745 96.1075 59.3472 97.7991C60.2199 99.4256 61.4695 100.467 63.096 100.922V79.4524C60.4381 78.3463 58.2761 77.2403 56.61 76.1343C54.9439 74.9633 53.5158 73.1416 52.3257 70.6693C51.1753 68.1971 50.6001 64.814 50.6001 60.5201C50.6001 55.1202 51.7505 50.6636 54.0513 47.1504C56.3522 43.5721 59.367 41.4902 63.096 40.9047V33H66.9637V40.9047C70.4546 41.4252 73.2513 43.2468 75.3538 46.3697C77.496 49.4275 78.7059 53.6563 78.9836 59.0563H71.7241C71.6051 57.0394 71.129 55.2503 70.296 53.6889C69.4629 52.0624 68.3522 50.9564 66.9637 50.3708V71.4501C69.6216 72.491 71.7836 73.597 73.4497 74.7681C75.1158 75.8741 76.5241 77.6632 77.6745 80.1355C78.8249 82.5427 79.4001 85.8932 79.4001 90.1871ZM57.5026 59.9346C57.5026 62.602 57.9786 64.6839 58.9307 66.1803C59.9224 67.6766 61.3108 68.8802 63.096 69.791V50.0781C61.3902 50.4034 60.0216 51.4118 58.9902 53.1033C57.9984 54.7949 57.5026 57.0719 57.5026 59.9346ZM66.9637 100.922C68.7092 100.467 70.0778 99.328 71.0695 97.5063C72.0613 95.6196 72.5571 93.375 72.5571 90.7727C72.5571 88.1703 72.0613 86.1535 71.0695 84.7222C70.1175 83.2258 68.7489 82.0222 66.9637 81.1114V100.922Z" fill="#FCAE1D"/>
</svg>
