<svg width="60" height="150" viewBox="0 0 60 150" fill="none" xmlns="http://www.w3.org/2000/svg">
<ellipse cx="40" cy="75" rx="20" ry="75" fill="#6D5000"/>
<path d="M40 0H20V38H40V0Z" fill="#6D5000"/>
<path d="M40 105H20V150H40V105Z" fill="#6D5000"/>
<ellipse cx="20" cy="75" rx="20" ry="75" fill="#FDC93A"/>
<ellipse cx="20" cy="75" rx="16" ry="60" fill="#6D5000"/>
<path d="M26.4 90.1871C26.4 93.4401 26.1796 96.4979 25.7388 99.3605C25.3157 102.223 24.681 104.63 23.8347 106.582C23.006 108.534 22.0187 109.705 20.8727 110.095V118H19.1537V110.095C17.4964 109.51 16.1564 107.591 15.1339 104.338C14.1113 101.085 13.6 96.7907 13.6 91.4558H16.8264C16.8793 93.9931 17.0997 96.1075 17.4876 97.7991C17.8755 99.4256 18.4308 100.467 19.1537 100.922V79.4524C17.9724 78.3463 17.0115 77.2403 16.271 76.1343C15.5306 74.9633 14.8958 73.1416 14.3669 70.6693C13.8556 68.1971 13.6 64.814 13.6 60.5201C13.6 55.1202 14.1113 50.6636 15.1339 47.1504C16.1564 43.5721 17.4964 41.4902 19.1537 40.9047V33H20.8727V40.9047C22.4242 41.4252 23.6672 43.2468 24.6016 46.3697C25.5537 49.4275 26.0914 53.6563 26.2149 59.0563H22.9884C22.9355 57.0394 22.7239 55.2503 22.3537 53.6889C21.9834 52.0624 21.4898 50.9564 20.8727 50.3708V71.4501C22.054 72.491 23.0149 73.597 23.7553 74.7681C24.4958 75.8741 25.1217 77.6632 25.633 80.1355C26.1443 82.5427 26.4 85.8932 26.4 90.1871ZM16.6677 59.9346C16.6677 62.602 16.8793 64.6839 17.3025 66.1803C17.7432 67.6766 18.3603 68.8802 19.1537 69.791V50.0781C18.3956 50.4034 17.7873 51.4118 17.3289 53.1033C16.8881 54.7949 16.6677 57.0719 16.6677 59.9346ZM20.8727 100.922C21.6485 100.467 22.2567 99.328 22.6975 97.5063C23.1383 95.6196 23.3587 93.375 23.3587 90.7727C23.3587 88.1703 23.1383 86.1535 22.6975 84.7222C22.2744 83.2258 21.6661 82.0222 20.8727 81.1114V100.922Z" fill="#FCAE1D"/>
</svg>
