<svg width="70" height="150" viewBox="0 0 70 150" fill="none" xmlns="http://www.w3.org/2000/svg">
<ellipse cx="45" cy="75" rx="25" ry="75" fill="#6D5000"/>
<path d="M44 0H22V10H44V0Z" fill="#6D5000"/>
<path d="M44 140H22V150H44V140Z" fill="#6D5000"/>
<ellipse cx="25" cy="75" rx="25" ry="75" fill="#FDC93A"/>
<ellipse cx="25" cy="75" rx="20" ry="60" fill="#6D5000"/>
<path d="M33 90.1871C33 93.4401 32.7245 96.4979 32.1736 99.3605C31.6446 102.223 30.8512 104.63 29.7934 106.582C28.7576 108.534 27.5234 109.705 26.0909 110.095V118H23.9421V110.095C21.8705 109.51 20.1956 107.591 18.9174 104.338C17.6391 101.085 17 96.7907 17 91.4558H21.0331C21.0992 93.9931 21.3747 96.1075 21.8595 97.7991C22.3444 99.4256 23.0386 100.467 23.9421 100.922V79.4524C22.4656 78.3463 21.2645 77.2403 20.3388 76.1343C19.4132 74.9633 18.6198 73.1416 17.9587 70.6693C17.3196 68.1971 17 64.814 17 60.5201C17 55.1202 17.6391 50.6636 18.9174 47.1504C20.1956 43.5721 21.8705 41.4902 23.9421 40.9047V33H26.0909V40.9047C28.0303 41.4252 29.584 43.2468 30.7521 46.3697C31.9421 49.4275 32.6143 53.6563 32.7686 59.0563H28.7355C28.6694 57.0394 28.405 55.2503 27.9421 53.6889C27.4793 52.0624 26.8623 50.9564 26.0909 50.3708V71.4501C27.5675 72.491 28.7686 73.597 29.6942 74.7681C30.6198 75.8741 31.4022 77.6632 32.0413 80.1355C32.6804 82.5427 33 85.8932 33 90.1871ZM20.8347 59.9346C20.8347 62.602 21.0992 64.6839 21.6281 66.1803C22.1791 67.6766 22.9504 68.8802 23.9421 69.791V50.0781C22.9945 50.4034 22.2342 51.4118 21.6612 53.1033C21.1102 54.7949 20.8347 57.0719 20.8347 59.9346ZM26.0909 100.922C27.0606 100.467 27.8209 99.328 28.3719 97.5063C28.9229 95.6196 29.1983 93.375 29.1983 90.7727C29.1983 88.1703 28.9229 86.1535 28.3719 84.7222C27.843 83.2258 27.0826 82.0222 26.0909 81.1114V100.922Z" fill="#FCAE1D"/>
</svg>
