<svg width="30" height="150" viewBox="0 0 30 150" fill="none" xmlns="http://www.w3.org/2000/svg">
<ellipse cx="25" cy="75" rx="5" ry="75" fill="#6D5000"/>
<path d="M25 0H5V76H25V0Z" fill="#6D5000"/>
<path d="M25 76H5V150H25V76Z" fill="#6D5000"/>
<ellipse cx="5" cy="75" rx="5" ry="75" fill="#FDC93A"/>
<ellipse cx="5" cy="75" rx="4" ry="60" fill="#6D5000"/>
<path d="M6.59999 90.1871C6.59999 93.4401 6.5449 96.4979 6.4347 99.3605C6.32892 102.223 6.17024 104.63 5.95867 106.582C5.75151 108.534 5.50468 109.705 5.21818 110.095V118H4.78842V110.095C4.3741 109.51 4.03911 107.591 3.78346 104.338C3.52782 101.085 3.39999 96.7907 3.39999 91.4558H4.20661C4.21983 93.9931 4.27493 96.1075 4.37189 97.7991C4.46886 99.4256 4.60771 100.467 4.78842 100.922V79.4524C4.49311 78.3463 4.25289 77.2403 4.06776 76.1343C3.88264 74.9633 3.72396 73.1416 3.59173 70.6693C3.46391 68.1971 3.39999 64.814 3.39999 60.5201C3.39999 55.1202 3.52782 50.6636 3.78346 47.1504C4.03911 43.5721 4.3741 41.4902 4.78842 40.9047V33H5.21818V40.9047C5.60605 41.4252 5.9168 43.2468 6.15041 46.3697C6.38842 49.4275 6.52286 53.6563 6.55371 59.0563H5.7471C5.73388 57.0394 5.68099 55.2503 5.58842 53.6889C5.49586 52.0624 5.37245 50.9564 5.21818 50.3708V71.4501C5.51349 72.491 5.75371 73.597 5.93884 74.7681C6.12396 75.8741 6.28043 77.6632 6.40826 80.1355C6.53608 82.5427 6.59999 85.8932 6.59999 90.1871ZM4.16694 59.9346C4.16694 62.602 4.21983 64.6839 4.32561 66.1803C4.43581 67.6766 4.59008 68.8802 4.78842 69.791V50.0781C4.59889 50.4034 4.44683 51.4118 4.33223 53.1033C4.22203 54.7949 4.16694 57.0719 4.16694 59.9346ZM5.21818 100.922C5.41211 100.467 5.56418 99.328 5.67437 97.5063C5.78457 95.6196 5.83966 93.375 5.83966 90.7727C5.83966 88.1703 5.78457 86.1535 5.67437 84.7222C5.56859 83.2258 5.41652 82.0222 5.21818 81.1114V100.922Z" fill="#FCAE1D"/>
</svg>
