<svg width="60" height="151" viewBox="0 0 60 151" fill="none" xmlns="http://www.w3.org/2000/svg">
<ellipse cx="20" cy="75" rx="20" ry="75" fill="#6D5000"/>
<path d="M40 0H20V10.5H40V0Z" fill="#6D5000"/>
<path d="M40 140H20V150.5H40V140Z" fill="#6D5000"/>
<ellipse cx="40" cy="75" rx="20" ry="75" fill="#FDC93A"/>
<ellipse cx="40" cy="75" rx="16" ry="60" fill="#6D5000"/>
<path d="M46.4001 90.1871C46.4001 93.4401 46.1797 96.4979 45.7389 99.3605C45.3158 102.223 44.6811 104.63 43.8348 106.582C43.0062 108.534 42.0188 109.705 40.8728 110.095V118H39.1538V110.095C37.4965 109.51 36.1566 107.591 35.134 104.338C34.1114 101.085 33.6001 96.7907 33.6001 91.4558H36.8265C36.8794 93.9931 37.0998 96.1075 37.4877 97.7991C37.8756 99.4256 38.431 100.467 39.1538 100.922V79.4524C37.9725 78.3463 37.0117 77.2403 36.2712 76.1343C35.5307 74.9633 34.896 73.1416 34.367 70.6693C33.8557 68.1971 33.6001 64.814 33.6001 60.5201C33.6001 55.1202 34.1114 50.6636 35.134 47.1504C36.1566 43.5721 37.4965 41.4902 39.1538 40.9047V33H40.8728V40.9047C42.4243 41.4252 43.6673 43.2468 44.6018 46.3697C45.5538 49.4275 46.0916 53.6563 46.215 59.0563H42.9885C42.9356 57.0394 42.7241 55.2503 42.3538 53.6889C41.9836 52.0624 41.4899 50.9564 40.8728 50.3708V71.4501C42.0541 72.491 43.015 73.597 43.7555 74.7681C44.496 75.8741 45.1219 77.6632 45.6332 80.1355C46.1445 82.5427 46.4001 85.8932 46.4001 90.1871ZM36.6679 59.9346C36.6679 62.602 36.8794 64.6839 37.3026 66.1803C37.7433 67.6766 38.3604 68.8802 39.1538 69.791V50.0781C38.3957 50.4034 37.7874 51.4118 37.329 53.1033C36.8883 54.7949 36.6679 57.0719 36.6679 59.9346ZM40.8728 100.922C41.6486 100.467 42.2568 99.328 42.6976 97.5063C43.1384 95.6196 43.3588 93.375 43.3588 90.7727C43.3588 88.1703 43.1384 86.1535 42.6976 84.7222C42.2745 83.2258 41.6662 82.0222 40.8728 81.1114V100.922Z" fill="#FCAE1D"/>
</svg>
