<svg width="145" height="151" viewBox="0 0 145 151" fill="none" xmlns="http://www.w3.org/2000/svg">
<ellipse cx="70" cy="75" rx="70" ry="75" fill="#6D5000"/>
<path d="M83 0H63V10.5H83V0Z" fill="#6D5000"/>
<path d="M83 140H63V150.5H83V140Z" fill="#6D5000"/>
<ellipse cx="75" cy="75" rx="70" ry="75" fill="#FDC93A"/>
<ellipse cx="75" cy="75" rx="56" ry="60" fill="#6D5000"/>
<path d="M97.3996 90.1871C97.3996 93.4401 96.6283 96.4979 95.0856 99.3605C93.6046 102.223 91.3831 104.63 88.4211 106.582C85.5208 108.534 82.0652 109.705 78.0542 110.095V118H72.0376V110.095C66.2371 109.51 61.5473 107.591 57.9682 104.338C54.3891 101.085 52.5996 96.7907 52.5996 91.4558H63.8922C64.0773 93.9931 64.8486 96.1075 66.2062 97.7991C67.5638 99.4256 69.5076 100.467 72.0376 100.922V79.4524C67.9032 78.3463 64.5401 77.2403 61.9484 76.1343C59.3566 74.9633 57.1351 73.1416 55.2839 70.6693C53.4944 68.1971 52.5996 64.814 52.5996 60.5201C52.5996 55.1202 54.3891 50.6636 57.9682 47.1504C61.5473 43.5721 66.2371 41.4902 72.0376 40.9047V33H78.0542V40.9047C83.4845 41.4252 87.8349 43.2468 91.1054 46.3697C94.4376 49.4275 96.3197 53.6563 96.7517 59.0563H85.4591C85.274 57.0394 84.5335 55.2503 83.2376 53.6889C81.9418 52.0624 80.2139 50.9564 78.0542 50.3708V71.4501C82.1886 72.491 85.5517 73.597 88.1434 74.7681C90.7351 75.8741 92.9258 77.6632 94.7153 80.1355C96.5048 82.5427 97.3996 85.8932 97.3996 90.1871ZM63.3368 59.9346C63.3368 62.602 64.0773 64.6839 65.5583 66.1803C67.101 67.6766 69.2608 68.8802 72.0376 69.791V50.0781C69.3842 50.4034 67.2553 51.4118 65.6508 53.1033C64.1081 54.7949 63.3368 57.0719 63.3368 59.9346ZM78.0542 100.922C80.7693 100.467 82.8982 99.328 84.4409 97.5063C85.9836 95.6196 86.755 93.375 86.755 90.7727C86.755 88.1703 85.9836 86.1535 84.4409 84.7222C82.9599 83.2258 80.831 82.0222 78.0542 81.1114V100.922Z" fill="#FCAE1D"/>
</svg>
