<svg width="90" height="151" viewBox="0 0 90 151" fill="none" xmlns="http://www.w3.org/2000/svg">
<ellipse cx="55" cy="75" rx="35" ry="75" fill="#6D5000"/>
<path d="M55 0H30V11H55V0Z" fill="#6D5000"/>
<path d="M55 140H30V151H55V140Z" fill="#6D5000"/>
<ellipse cx="35" cy="75" rx="35" ry="75" fill="#FDC93A"/>
<ellipse cx="35" cy="75" rx="28" ry="60" fill="#6D5000"/>
<path d="M46.2001 90.1871C46.2001 93.4401 45.8144 96.4979 45.043 99.3605C44.3025 102.223 43.1918 104.63 41.7108 106.582C40.2607 108.534 38.5328 109.705 36.5273 110.095V118H33.5191V110.095C30.6188 109.51 28.2739 107.591 26.4843 104.338C24.6948 101.085 23.8 96.7907 23.8 91.4558H29.4463C29.5389 93.9931 29.9246 96.1075 30.6034 97.7991C31.2821 99.4256 32.254 100.467 33.5191 100.922V79.4524C31.4518 78.3463 29.7703 77.2403 28.4744 76.1343C27.1786 74.9633 26.0678 73.1416 25.1422 70.6693C24.2474 68.1971 23.8 64.814 23.8 60.5201C23.8 55.1202 24.6948 50.6636 26.4843 47.1504C28.2739 43.5721 30.6188 41.4902 33.5191 40.9047V33H36.5273V40.9047C39.2425 41.4252 41.4177 43.2468 43.0529 46.3697C44.7191 49.4275 45.6601 53.6563 45.8761 59.0563H40.2298C40.1372 57.0394 39.767 55.2503 39.1191 53.6889C38.4711 52.0624 37.6072 50.9564 36.5273 50.3708V71.4501C38.5945 72.491 40.2761 73.597 41.572 74.7681C42.8678 75.8741 43.9631 77.6632 44.8579 80.1355C45.7527 82.5427 46.2001 85.8932 46.2001 90.1871ZM29.1686 59.9346C29.1686 62.602 29.5389 64.6839 30.2794 66.1803C31.0507 67.6766 32.1306 68.8802 33.5191 69.791V50.0781C32.1923 50.4034 31.1279 51.4118 30.3257 53.1033C29.5543 54.7949 29.1686 57.0719 29.1686 59.9346ZM36.5273 100.922C37.8849 100.467 38.9494 99.328 39.7207 97.5063C40.4921 95.6196 40.8777 93.375 40.8777 90.7727C40.8777 88.1703 40.4921 86.1535 39.7207 84.7222C38.9802 83.2258 37.9158 82.0222 36.5273 81.1114V100.922Z" fill="#FCAE1D"/>
</svg>
