<svg width="130" height="151" viewBox="0 0 130 151" fill="none" xmlns="http://www.w3.org/2000/svg">
<ellipse cx="55" cy="75" rx="55" ry="75" fill="#6D5000"/>
<path d="M75 0H55V10.5H75V0Z" fill="#6D5000"/>
<path d="M75 140H55V150.5H75V140Z" fill="#6D5000"/>
<ellipse cx="75" cy="75" rx="55" ry="75" fill="#FDC93A"/>
<ellipse cx="75" cy="75" rx="44" ry="60" fill="#6D5000"/>
<path d="M92.5999 90.1871C92.5999 93.4401 91.9938 96.4979 90.7817 99.3605C89.6181 102.223 87.8726 104.63 85.5454 106.582C83.2666 108.534 80.5514 109.705 77.3999 110.095V118H72.6726V110.095C68.1151 109.51 64.4302 107.591 61.6181 104.338C58.806 101.085 57.3999 96.7907 57.3999 91.4558H66.2726C66.4181 93.9931 67.0241 96.1075 68.0908 97.7991C69.1575 99.4256 70.6848 100.467 72.6726 100.922V79.4524C69.4241 78.3463 66.7817 77.2403 64.7454 76.1343C62.709 74.9633 60.9635 73.1416 59.509 70.6693C58.1029 68.1971 57.3999 64.814 57.3999 60.5201C57.3999 55.1202 58.806 50.6636 61.6181 47.1504C64.4302 43.5721 68.1151 41.4902 72.6726 40.9047V33H77.3999V40.9047C81.6666 41.4252 85.0848 43.2468 87.6544 46.3697C90.2726 49.4275 91.7514 53.6563 92.0908 59.0563H83.2181C83.0726 57.0394 82.4908 55.2503 81.4726 53.6889C80.4544 52.0624 79.0969 50.9564 77.3999 50.3708V71.4501C80.6484 72.491 83.2908 73.597 85.3272 74.7681C87.3635 75.8741 89.0848 77.6632 90.4908 80.1355C91.8969 82.5427 92.5999 85.8932 92.5999 90.1871ZM65.8363 59.9346C65.8363 62.602 66.4181 64.6839 67.5817 66.1803C68.7938 67.6766 70.4908 68.8802 72.6726 69.791V50.0781C70.5878 50.4034 68.9151 51.4118 67.6544 53.1033C66.4423 54.7949 65.8363 57.0719 65.8363 59.9346ZM77.3999 100.922C79.5332 100.467 81.206 99.328 82.4181 97.5063C83.6302 95.6196 84.2363 93.375 84.2363 90.7727C84.2363 88.1703 83.6302 86.1535 82.4181 84.7222C81.2544 83.2258 79.5817 82.0222 77.3999 81.1114V100.922Z" fill="#FCAE1D"/>
</svg>
