<svg width="110" height="150" viewBox="0 0 110 150" fill="none" xmlns="http://www.w3.org/2000/svg">
<ellipse cx="65" cy="75" rx="45" ry="75" fill="#6D5000"/>
<path d="M62 0H44V11H62V0Z" fill="#6D5000"/>
<path d="M62 140H44V150H62V140Z" fill="#6D5000"/>
<ellipse cx="45" cy="75" rx="45" ry="75" fill="#FDC93A"/>
<ellipse cx="45" cy="75" rx="36" ry="60" fill="#6D5000"/>
<path d="M59.4001 90.1871C59.4001 93.4401 58.9042 96.4979 57.9125 99.3605C56.9604 102.223 55.5323 104.63 53.6282 106.582C51.7637 108.534 49.5422 109.705 46.9637 110.095V118H43.096V110.095C39.367 109.51 36.3522 107.591 34.0513 104.338C31.7505 101.085 30.6001 96.7907 30.6001 91.4558H37.8596C37.9786 93.9931 38.4745 96.1075 39.3472 97.7991C40.2199 99.4256 41.4695 100.467 43.096 100.922V79.4524C40.4381 78.3463 38.2761 77.2403 36.61 76.1343C34.9439 74.9633 33.5158 73.1416 32.3257 70.6693C31.1753 68.1971 30.6001 64.814 30.6001 60.5201C30.6001 55.1202 31.7505 50.6636 34.0513 47.1504C36.3522 43.5721 39.367 41.4902 43.096 40.9047V33H46.9637V40.9047C50.4546 41.4252 53.2513 43.2468 55.3538 46.3697C57.496 49.4275 58.7059 53.6563 58.9836 59.0563H51.7241C51.6051 57.0394 51.129 55.2503 50.296 53.6889C49.4629 52.0624 48.3522 50.9564 46.9637 50.3708V71.4501C49.6216 72.491 51.7836 73.597 53.4497 74.7681C55.1158 75.8741 56.5241 77.6632 57.6745 80.1355C58.8249 82.5427 59.4001 85.8932 59.4001 90.1871ZM37.5026 59.9346C37.5026 62.602 37.9786 64.6839 38.9307 66.1803C39.9224 67.6766 41.3108 68.8802 43.096 69.791V50.0781C41.3902 50.4034 40.0216 51.4118 38.9902 53.1033C37.9984 54.7949 37.5026 57.0719 37.5026 59.9346ZM46.9637 100.922C48.7092 100.467 50.0778 99.328 51.0695 97.5063C52.0613 95.6196 52.5571 93.375 52.5571 90.7727C52.5571 88.1703 52.0613 86.1535 51.0695 84.7222C50.1175 83.2258 48.7489 82.0222 46.9637 81.1114V100.922Z" fill="#FCAE1D"/>
</svg>
