<svg width="100" height="150" viewBox="0 0 100 150" fill="none" xmlns="http://www.w3.org/2000/svg">
<ellipse cx="60" cy="75" rx="40" ry="75" fill="#6D5000"/>
<path d="M59 0H43V10H59V0Z" fill="#6D5000"/>
<path d="M59 140H43V150H59V140Z" fill="#6D5000"/>
<ellipse cx="40" cy="75" rx="40" ry="75" fill="#FDC93A"/>
<ellipse cx="40" cy="75" rx="32" ry="60" fill="#6D5000"/>
<path d="M52.8 90.1871C52.8 93.4401 52.3592 96.4979 51.4776 99.3605C50.6314 102.223 49.3619 104.63 47.6694 106.582C46.0121 108.534 44.0374 109.705 41.7454 110.095V118H38.3074V110.095C34.9928 109.51 32.3129 107.591 30.2677 104.338C28.2225 101.085 27.2 96.7907 27.2 91.4558H33.6528C33.7586 93.9931 34.1994 96.1075 34.9752 97.7991C35.7509 99.4256 36.8617 100.467 38.3074 100.922V79.4524C35.9449 78.3463 34.0231 77.2403 32.5421 76.1343C31.0611 74.9633 29.7917 73.1416 28.7338 70.6693C27.7112 68.1971 27.2 64.814 27.2 60.5201C27.2 55.1202 28.2225 50.6636 30.2677 47.1504C32.3129 43.5721 34.9928 41.4902 38.3074 40.9047V33H41.7454V40.9047C44.8484 41.4252 47.3344 43.2468 49.2033 46.3697C51.1074 49.4275 52.1829 53.6563 52.4297 59.0563H45.9768C45.871 57.0394 45.4479 55.2503 44.7074 53.6889C43.9669 52.0624 42.9796 50.9564 41.7454 50.3708V71.4501C44.1079 72.491 46.0297 73.597 47.5107 74.7681C48.9917 75.8741 50.2435 77.6632 51.2661 80.1355C52.2887 82.5427 52.8 85.8932 52.8 90.1871ZM33.3355 59.9346C33.3355 62.602 33.7586 64.6839 34.6049 66.1803C35.4865 67.6766 36.7206 68.8802 38.3074 69.791V50.0781C36.7911 50.4034 35.5746 51.4118 34.6578 53.1033C33.7763 54.7949 33.3355 57.0719 33.3355 59.9346ZM41.7454 100.922C43.2969 100.467 44.5134 99.328 45.395 97.5063C46.2765 95.6196 46.7173 93.375 46.7173 90.7727C46.7173 88.1703 46.2765 86.1535 45.395 84.7222C44.5487 83.2258 43.3322 82.0222 41.7454 81.1114V100.922Z" fill="#FCAE1D"/>
</svg>
