<svg width="135" height="151" viewBox="0 0 135 151" fill="none" xmlns="http://www.w3.org/2000/svg">
<ellipse cx="75" cy="75" rx="60" ry="75" fill="#6D5000"/>
<path d="M74 0H58V10.5H74V0Z" fill="#6D5000"/>
<path d="M74 140H58V150.5H74V140Z" fill="#6D5000"/>
<ellipse cx="60" cy="75" rx="60" ry="75" fill="#FDC93A"/>
<ellipse cx="60" cy="75" rx="48" ry="60" fill="#6D5000"/>
<path d="M79.1998 90.1871C79.1998 93.4401 78.5386 96.4979 77.2163 99.3605C75.9469 102.223 74.0428 104.63 71.5039 106.582C69.018 108.534 66.056 109.705 62.618 110.095V118H57.461V110.095C52.4891 109.51 48.4692 107.591 45.4015 104.338C42.3337 101.085 40.7998 96.7907 40.7998 91.4558H50.4791C50.6378 93.9931 51.299 96.1075 52.4626 97.7991C53.6263 99.4256 55.2924 100.467 57.461 100.922V79.4524C53.9172 78.3463 51.0345 77.2403 48.813 76.1343C46.5915 74.9633 44.6874 73.1416 43.1006 70.6693C41.5667 68.1971 40.7998 64.814 40.7998 60.5201C40.7998 55.1202 42.3337 50.6636 45.4015 47.1504C48.4692 43.5721 52.4891 41.4902 57.461 40.9047V33H62.618V40.9047C67.2725 41.4252 71.0015 43.2468 73.8048 46.3697C76.661 49.4275 78.2742 53.6563 78.6444 59.0563H68.9651C68.8064 57.0394 68.1717 55.2503 67.061 53.6889C65.9502 52.0624 64.4692 50.9564 62.618 50.3708V71.4501C66.1618 72.491 69.0444 73.597 71.2659 74.7681C73.4874 75.8741 75.3651 77.6632 76.899 80.1355C78.4329 82.5427 79.1998 85.8932 79.1998 90.1871ZM50.0031 59.9346C50.0031 62.602 50.6378 64.6839 51.9072 66.1803C53.2296 67.6766 55.0808 68.8802 57.461 69.791V50.0781C55.1866 50.4034 53.3618 51.4118 51.9866 53.1033C50.6643 54.7949 50.0031 57.0719 50.0031 59.9346ZM62.618 100.922C64.9453 100.467 66.7701 99.328 68.0924 97.5063C69.4147 95.6196 70.0758 93.375 70.0758 90.7727C70.0758 88.1703 69.4147 86.1535 68.0924 84.7222C66.8229 83.2258 64.9982 82.0222 62.618 81.1114V100.922Z" fill="#FCAE1D"/>
</svg>
