<svg width="130" height="151" viewBox="0 0 130 151" fill="none" xmlns="http://www.w3.org/2000/svg">
<ellipse cx="75" cy="75" rx="55" ry="75" fill="#6D5000"/>
<path d="M72.6667 0H58V10.5H72.6667V0Z" fill="#6D5000"/>
<path d="M72.6667 140H58V150.5H72.6667V140Z" fill="#6D5000"/>
<ellipse cx="55" cy="75" rx="55" ry="75" fill="#FDC93A"/>
<ellipse cx="55" cy="75" rx="44" ry="60" fill="#6D5000"/>
<path d="M72.5999 90.1871C72.5999 93.4401 71.9938 96.4979 70.7817 99.3605C69.6181 102.223 67.8726 104.63 65.5454 106.582C63.2666 108.534 60.5514 109.705 57.3999 110.095V118H52.6726V110.095C48.1151 109.51 44.4302 107.591 41.6181 104.338C38.806 101.085 37.3999 96.7907 37.3999 91.4558H46.2726C46.4181 93.9931 47.0241 96.1075 48.0908 97.7991C49.1575 99.4256 50.6848 100.467 52.6726 100.922V79.4524C49.4241 78.3463 46.7817 77.2403 44.7454 76.1343C42.709 74.9633 40.9635 73.1416 39.509 70.6693C38.1029 68.1971 37.3999 64.814 37.3999 60.5201C37.3999 55.1202 38.806 50.6636 41.6181 47.1504C44.4302 43.5721 48.1151 41.4902 52.6726 40.9047V33H57.3999V40.9047C61.6666 41.4252 65.0848 43.2468 67.6544 46.3697C70.2726 49.4275 71.7514 53.6563 72.0908 59.0563H63.2181C63.0726 57.0394 62.4908 55.2503 61.4726 53.6889C60.4544 52.0624 59.0969 50.9564 57.3999 50.3708V71.4501C60.6484 72.491 63.2908 73.597 65.3272 74.7681C67.3635 75.8741 69.0848 77.6632 70.4908 80.1355C71.8969 82.5427 72.5999 85.8932 72.5999 90.1871ZM45.8363 59.9346C45.8363 62.602 46.4181 64.6839 47.5817 66.1803C48.7938 67.6766 50.4908 68.8802 52.6726 69.791V50.0781C50.5878 50.4034 48.9151 51.4118 47.6544 53.1033C46.4423 54.7949 45.8363 57.0719 45.8363 59.9346ZM57.3999 100.922C59.5332 100.467 61.206 99.328 62.4181 97.5063C63.6302 95.6196 64.2363 93.375 64.2363 90.7727C64.2363 88.1703 63.6302 86.1535 62.4181 84.7222C61.2544 83.2258 59.5817 82.0222 57.3999 81.1114V100.922Z" fill="#FCAE1D"/>
</svg>
