<svg width="100" height="151" viewBox="0 0 100 151" fill="none" xmlns="http://www.w3.org/2000/svg">
<ellipse cx="40" cy="75" rx="40" ry="75" fill="#6D5000"/>
<path d="M60 0H40V10.5H60V0Z" fill="#6D5000"/>
<path d="M60 140H40V150.5H60V140Z" fill="#6D5000"/>
<ellipse cx="60" cy="75" rx="40" ry="75" fill="#FDC93A"/>
<ellipse cx="60" cy="75" rx="32" ry="60" fill="#6D5000"/>
<path d="M72.8002 90.1871C72.8002 93.4401 72.3594 96.4979 71.4779 99.3605C70.6316 102.223 69.3622 104.63 67.6696 106.582C66.0123 108.534 64.0377 109.705 61.7456 110.095V118H58.3076V110.095C54.993 109.51 52.3131 107.591 50.268 104.338C48.2228 101.085 47.2002 96.7907 47.2002 91.4558H53.6531C53.7589 93.9931 54.1996 96.1075 54.9754 97.7991C55.7512 99.4256 56.8619 100.467 58.3076 100.922V79.4524C55.9451 78.3463 54.0233 77.2403 52.5423 76.1343C51.0614 74.9633 49.7919 73.1416 48.7341 70.6693C47.7115 68.1971 47.2002 64.814 47.2002 60.5201C47.2002 55.1202 48.2228 50.6636 50.268 47.1504C52.3131 43.5721 54.993 41.4902 58.3076 40.9047V33H61.7456V40.9047C64.8487 41.4252 67.3346 43.2468 69.2035 46.3697C71.1076 49.4275 72.1831 53.6563 72.4299 59.0563H65.9771C65.8713 57.0394 65.4481 55.2503 64.7076 53.6889C63.9671 52.0624 62.9798 50.9564 61.7456 50.3708V71.4501C64.1082 72.491 66.0299 73.597 67.5109 74.7681C68.9919 75.8741 70.2437 77.6632 71.2663 80.1355C72.2889 82.5427 72.8002 85.8932 72.8002 90.1871ZM53.3357 59.9346C53.3357 62.602 53.7589 64.6839 54.6052 66.1803C55.4867 67.6766 56.7209 68.8802 58.3076 69.791V50.0781C56.7914 50.4034 55.5749 51.4118 54.658 53.1033C53.7765 54.7949 53.3357 57.0719 53.3357 59.9346ZM61.7456 100.922C63.2972 100.467 64.5137 99.328 65.3952 97.5063C66.2768 95.6196 66.7176 93.375 66.7176 90.7727C66.7176 88.1703 66.2768 86.1535 65.3952 84.7222C64.549 83.2258 63.3324 82.0222 61.7456 81.1114V100.922Z" fill="#FCAE1D"/>
</svg>
