<svg width="140" height="151" viewBox="0 0 140 151" fill="none" xmlns="http://www.w3.org/2000/svg">
<ellipse cx="75" cy="75" rx="65" ry="75" fill="#6D5000"/>
<path d="M73.6668 0H56.3335V10.5H73.6668V0Z" fill="#6D5000"/>
<path d="M73.6668 140H56.3335V150.5H73.6668V140Z" fill="#6D5000"/>
<ellipse cx="65" cy="75" rx="65" ry="75" fill="#FDC93A"/>
<ellipse cx="65" cy="75" rx="52" ry="60" fill="#6D5000"/>
<path d="M85.8002 90.1871C85.8002 93.4401 85.0839 96.4979 83.6514 99.3605C82.2762 102.223 80.2134 104.63 77.463 106.582C74.7699 108.534 71.5611 109.705 67.8366 110.095V118H62.2498V110.095C56.8636 109.51 52.5087 107.591 49.1853 104.338C45.8619 101.085 44.2002 96.7907 44.2002 91.4558H54.6861C54.858 93.9931 55.5743 96.1075 56.8349 97.7991C58.0955 99.4256 59.9005 100.467 62.2498 100.922V79.4524C58.4107 78.3463 55.2878 77.2403 52.8812 76.1343C50.4746 74.9633 48.4118 73.1416 46.6928 70.6693C45.031 68.1971 44.2002 64.814 44.2002 60.5201C44.2002 55.1202 45.8619 50.6636 49.1853 47.1504C52.5087 43.5721 56.8636 41.4902 62.2498 40.9047V33H67.8366V40.9047C72.879 41.4252 76.9187 43.2468 79.9556 46.3697C83.0498 49.4275 84.7974 53.6563 85.1985 59.0563H74.7126C74.5407 57.0394 73.8531 55.2503 72.6498 53.6889C71.4465 52.0624 69.8421 50.9564 67.8366 50.3708V71.4501C71.6757 72.491 74.7985 73.597 77.2052 74.7681C79.6118 75.8741 81.6459 77.6632 83.3076 80.1355C84.9693 82.5427 85.8002 85.8932 85.8002 90.1871ZM54.1704 59.9346C54.1704 62.602 54.858 64.6839 56.2333 66.1803C57.6658 67.6766 59.6713 68.8802 62.2498 69.791V50.0781C59.7859 50.4034 57.809 51.4118 56.3192 53.1033C54.8867 54.7949 54.1704 57.0719 54.1704 59.9346ZM67.8366 100.922C70.3578 100.467 72.3346 99.328 73.7671 97.5063C75.1996 95.6196 75.9159 93.375 75.9159 90.7727C75.9159 88.1703 75.1996 86.1535 73.7671 84.7222C72.3919 83.2258 70.4151 82.0222 67.8366 81.1114V100.922Z" fill="#FCAE1D"/>
</svg>
