<svg width="21" height="151" viewBox="0 0 21 151" fill="none" xmlns="http://www.w3.org/2000/svg">
<ellipse cx="0.5" cy="75" rx="0.5" ry="75" fill="#6D5000"/>
<path d="M21 0H0V76H21V0Z" fill="#6D5000"/>
<path d="M20 76H0V151H20V76Z" fill="#6D5000"/>
<ellipse cx="20.5" cy="75" rx="0.5" ry="75" fill="#FDC93A"/>
<ellipse cx="20.5" cy="75" rx="0.4" ry="60" fill="#6D5000"/>
<path d="M20.66 90.1871C20.66 93.4401 20.6545 96.4979 20.6434 99.3605C20.6329 102.223 20.617 104.63 20.5958 106.582C20.5751 108.534 20.5504 109.705 20.5218 110.095V118H20.4788V110.095C20.4374 109.51 20.4039 107.591 20.3783 104.338C20.3527 101.085 20.34 96.7907 20.34 91.4558H20.4206C20.4219 93.9931 20.4275 96.1075 20.4372 97.7991C20.4469 99.4256 20.4607 100.467 20.4788 100.922V79.4524C20.4493 78.3463 20.4253 77.2403 20.4067 76.1343C20.3882 74.9633 20.3724 73.1416 20.3591 70.6693C20.3464 68.1971 20.34 64.814 20.34 60.5201C20.34 55.1202 20.3527 50.6636 20.3783 47.1504C20.4039 43.5721 20.4374 41.4902 20.4788 40.9047V33H20.5218V40.9047C20.5606 41.4252 20.5916 43.2468 20.615 46.3697C20.6388 49.4275 20.6523 53.6563 20.6553 59.0563H20.5747C20.5734 57.0394 20.5681 55.2503 20.5588 53.6889C20.5496 52.0624 20.5372 50.9564 20.5218 50.3708V71.4501C20.5513 72.491 20.5753 73.597 20.5939 74.7681C20.6124 75.8741 20.628 77.6632 20.6408 80.1355C20.6536 82.5427 20.66 85.8932 20.66 90.1871ZM20.4167 59.9346C20.4167 62.602 20.4219 64.6839 20.4325 66.1803C20.4435 67.6766 20.459 68.8802 20.4788 69.791V50.0781C20.4599 50.4034 20.4446 51.4118 20.4332 53.1033C20.4222 54.7949 20.4167 57.0719 20.4167 59.9346ZM20.5218 100.922C20.5412 100.467 20.5564 99.328 20.5674 97.5063C20.5784 95.6196 20.5839 93.375 20.5839 90.7727C20.5839 88.1703 20.5784 86.1535 20.5674 84.7222C20.5568 83.2258 20.5416 82.0222 20.5218 81.1114V100.922Z" fill="#FCAE1D"/>
</svg>
