<svg width="145" height="151" viewBox="0 0 145 151" fill="none" xmlns="http://www.w3.org/2000/svg">
<ellipse cx="75" cy="75" rx="70" ry="75" fill="#6D5000"/>
<path d="M79.3332 0H60.6665V10.5H79.3332V0Z" fill="#6D5000"/>
<path d="M79.3332 140H60.6665V150.5H79.3332V140Z" fill="#6D5000"/>
<ellipse cx="70" cy="75" rx="70" ry="75" fill="#FDC93A"/>
<ellipse cx="70" cy="75" rx="56" ry="60" fill="#6D5000"/>
<path d="M92.4001 90.1871C92.4001 93.4401 91.6287 96.4979 90.086 99.3605C88.6051 102.223 86.3836 104.63 83.4216 106.582C80.5213 108.534 77.0657 109.705 73.0546 110.095V118H67.0381V110.095C61.2376 109.51 56.5478 107.591 52.9687 104.338C49.3896 101.085 47.6001 96.7907 47.6001 91.4558H58.8927C59.0778 93.9931 59.8491 96.1075 61.2067 97.7991C62.5643 99.4256 64.5081 100.467 67.0381 100.922V79.4524C62.9037 78.3463 59.5406 77.2403 56.9489 76.1343C54.3571 74.9633 52.1356 73.1416 50.2844 70.6693C48.4949 68.1971 47.6001 64.814 47.6001 60.5201C47.6001 55.1202 49.3896 50.6636 52.9687 47.1504C56.5478 43.5721 61.2376 41.4902 67.0381 40.9047V33H73.0546V40.9047C78.4849 41.4252 82.8354 43.2468 86.1059 46.3697C89.4381 49.4275 91.3202 53.6563 91.7522 59.0563H80.4596C80.2745 57.0394 79.534 55.2503 78.2381 53.6889C76.9422 52.0624 75.2144 50.9564 73.0546 50.3708V71.4501C77.1891 72.491 80.5522 73.597 83.1439 74.7681C85.7356 75.8741 87.9263 77.6632 89.7158 80.1355C91.5053 82.5427 92.4001 85.8932 92.4001 90.1871ZM58.3373 59.9346C58.3373 62.602 59.0778 64.6839 60.5588 66.1803C62.1015 67.6766 64.2613 68.8802 67.0381 69.791V50.0781C64.3847 50.4034 62.2557 51.4118 60.6513 53.1033C59.1086 54.7949 58.3373 57.0719 58.3373 59.9346ZM73.0546 100.922C75.7698 100.467 77.8987 99.328 79.4414 97.5063C80.9841 95.6196 81.7555 93.375 81.7555 90.7727C81.7555 88.1703 80.9841 86.1535 79.4414 84.7222C77.9604 83.2258 75.8315 82.0222 73.0546 81.1114V100.922Z" fill="#FCAE1D"/>
</svg>
