<svg width="50" height="151" viewBox="0 0 50 151" fill="none" xmlns="http://www.w3.org/2000/svg">
<ellipse cx="15" cy="75" rx="15" ry="75" fill="#6D5000"/>
<path d="M35 0H15V76H35V0Z" fill="#6D5000"/>
<path d="M35 76H15V151H35V76Z" fill="#6D5000"/>
<ellipse cx="35" cy="75" rx="15" ry="75" fill="#FDC93A"/>
<ellipse cx="35" cy="75" rx="12" ry="60" fill="#6D5000"/>
<path d="M39.8 90.1871C39.8 93.4401 39.6347 96.4979 39.3041 99.3605C38.9867 102.223 38.5107 104.63 37.876 106.582C37.2545 108.534 36.514 109.705 35.6545 110.095V118H34.3652V110.095C33.1223 109.51 32.1173 107.591 31.3504 104.338C30.5834 101.085 30.2 96.7907 30.2 91.4558H32.6198C32.6595 93.9931 32.8247 96.1075 33.1157 97.7991C33.4066 99.4256 33.8231 100.467 34.3652 100.922V79.4524C33.4793 78.3463 32.7586 77.2403 32.2033 76.1343C31.6479 74.9633 31.1719 73.1416 30.7752 70.6693C30.3917 68.1971 30.2 64.814 30.2 60.5201C30.2 55.1202 30.5834 50.6636 31.3504 47.1504C32.1173 43.5721 33.1223 41.4902 34.3652 40.9047V33H35.6545V40.9047C36.8181 41.4252 37.7504 43.2468 38.4512 46.3697C39.1652 49.4275 39.5685 53.6563 39.6611 59.0563H37.2413C37.2016 57.0394 37.0429 55.2503 36.7652 53.6889C36.4876 52.0624 36.1173 50.9564 35.6545 50.3708V71.4501C36.5404 72.491 37.2611 73.597 37.8165 74.7681C38.3719 75.8741 38.8413 77.6632 39.2247 80.1355C39.6082 82.5427 39.8 85.8932 39.8 90.1871ZM32.5008 59.9346C32.5008 62.602 32.6595 64.6839 32.9768 66.1803C33.3074 67.6766 33.7702 68.8802 34.3652 69.791V50.0781C33.7966 50.4034 33.3404 51.4118 32.9966 53.1033C32.6661 54.7949 32.5008 57.0719 32.5008 59.9346ZM35.6545 100.922C36.2363 100.467 36.6925 99.328 37.0231 97.5063C37.3537 95.6196 37.519 93.375 37.519 90.7727C37.519 88.1703 37.3537 86.1535 37.0231 84.7222C36.7057 83.2258 36.2495 82.0222 35.6545 81.1114V100.922Z" fill="#FCAE1D"/>
</svg>
