<svg width="40" height="151" viewBox="0 0 40 151" fill="none" xmlns="http://www.w3.org/2000/svg">
<ellipse cx="10" cy="75" rx="10" ry="75" fill="#6D5000"/>
<path d="M30 0H10V76H30V0Z" fill="#6D5000"/>
<path d="M30 76H10V151H30V76Z" fill="#6D5000"/>
<ellipse cx="30" cy="75" rx="10" ry="75" fill="#FDC93A"/>
<ellipse cx="30" cy="75" rx="8" ry="60" fill="#6D5000"/>
<path d="M33.2 90.1871C33.2 93.4401 33.0899 96.4979 32.8695 99.3605C32.6579 102.223 32.3405 104.63 31.9174 106.582C31.5031 108.534 31.0094 109.705 30.4364 110.095V118H29.5769V110.095C28.7483 109.51 28.0783 107.591 27.567 104.338C27.0557 101.085 26.8 96.7907 26.8 91.4558H28.4133C28.4397 93.9931 28.5499 96.1075 28.7439 97.7991C28.9378 99.4256 29.2155 100.467 29.5769 100.922V79.4524C28.9863 78.3463 28.5058 77.2403 28.1356 76.1343C27.7653 74.9633 27.448 73.1416 27.1835 70.6693C26.9279 68.1971 26.8 64.814 26.8 60.5201C26.8 55.1202 27.0557 50.6636 27.567 47.1504C28.0783 43.5721 28.7483 41.4902 29.5769 40.9047V33H30.4364V40.9047C31.2122 41.4252 31.8337 43.2468 32.3009 46.3697C32.7769 49.4275 33.0458 53.6563 33.1075 59.0563H31.4943C31.4678 57.0394 31.362 55.2503 31.1769 53.6889C30.9918 52.0624 30.745 50.9564 30.4364 50.3708V71.4501C31.027 72.491 31.5075 73.597 31.8777 74.7681C32.248 75.8741 32.5609 77.6632 32.8166 80.1355C33.0722 82.5427 33.2 85.8932 33.2 90.1871ZM28.3339 59.9346C28.3339 62.602 28.4397 64.6839 28.6513 66.1803C28.8717 67.6766 29.1802 68.8802 29.5769 69.791V50.0781C29.1978 50.4034 28.8937 51.4118 28.6645 53.1033C28.4441 54.7949 28.3339 57.0719 28.3339 59.9346ZM30.4364 100.922C30.8243 100.467 31.1284 99.328 31.3488 97.5063C31.5692 95.6196 31.6794 93.375 31.6794 90.7727C31.6794 88.1703 31.5692 86.1535 31.3488 84.7222C31.1372 83.2258 30.8331 82.0222 30.4364 81.1114V100.922Z" fill="#FCAE1D"/>
</svg>
