<svg width="70" height="151" viewBox="0 0 70 151" fill="none" xmlns="http://www.w3.org/2000/svg">
<ellipse cx="25" cy="75" rx="25" ry="75" fill="#6D5000"/>
<path d="M45 0H25V10.5H45V0Z" fill="#6D5000"/>
<path d="M45 140H25V150.5H45V140Z" fill="#6D5000"/>
<ellipse cx="45" cy="75" rx="25" ry="75" fill="#FDC93A"/>
<ellipse cx="45" cy="75" rx="20" ry="60" fill="#6D5000"/>
<path d="M53 90.1871C53 93.4401 52.7245 96.4979 52.1736 99.3605C51.6446 102.223 50.8512 104.63 49.7934 106.582C48.7576 108.534 47.5234 109.705 46.0909 110.095V118H43.9421V110.095C41.8705 109.51 40.1956 107.591 38.9174 104.338C37.6391 101.085 37 96.7907 37 91.4558H41.0331C41.0992 93.9931 41.3747 96.1075 41.8595 97.7991C42.3444 99.4256 43.0386 100.467 43.9421 100.922V79.4524C42.4656 78.3463 41.2645 77.2403 40.3388 76.1343C39.4132 74.9633 38.6198 73.1416 37.9587 70.6693C37.3196 68.1971 37 64.814 37 60.5201C37 55.1202 37.6391 50.6636 38.9174 47.1504C40.1956 43.5721 41.8705 41.4902 43.9421 40.9047V33H46.0909V40.9047C48.0303 41.4252 49.584 43.2468 50.7521 46.3697C51.9421 49.4275 52.6143 53.6563 52.7686 59.0563H48.7355C48.6694 57.0394 48.405 55.2503 47.9421 53.6889C47.4793 52.0624 46.8623 50.9564 46.0909 50.3708V71.4501C47.5675 72.491 48.7686 73.597 49.6942 74.7681C50.6198 75.8741 51.4022 77.6632 52.0413 80.1355C52.6804 82.5427 53 85.8932 53 90.1871ZM40.8347 59.9346C40.8347 62.602 41.0992 64.6839 41.6281 66.1803C42.1791 67.6766 42.9504 68.8802 43.9421 69.791V50.0781C42.9945 50.4034 42.2342 51.4118 41.6612 53.1033C41.1102 54.7949 40.8347 57.0719 40.8347 59.9346ZM46.0909 100.922C47.0606 100.467 47.8209 99.328 48.3719 97.5063C48.9229 95.6196 49.1983 93.375 49.1983 90.7727C49.1983 88.1703 48.9229 86.1535 48.3719 84.7222C47.843 83.2258 47.0826 82.0222 46.0909 81.1114V100.922Z" fill="#FCAE1D"/>
</svg>
