<svg width="150" height="150" viewBox="0 0 150 150" fill="none" xmlns="http://www.w3.org/2000/svg">
<circle cx="75" cy="75" r="75" fill="#6D5000"/>
<path d="M85 0H65V10.5H85V0Z" fill="#6D5000"/>
<path d="M85 140H65V150H85V140Z" fill="#6D5000"/>
<circle cx="75" cy="75" r="75" fill="#FDC93A"/>
<circle cx="75" cy="75" r="60" fill="#6D5000"/>
<path d="M99 90.1871C99 93.4401 98.1735 96.4979 96.5207 99.3605C94.9339 102.223 92.5537 104.63 89.3802 106.582C86.2727 108.534 82.5702 109.705 78.2727 110.095V118H71.8264V110.095C65.6116 109.51 60.5868 107.591 56.7521 104.338C52.9174 101.085 51 96.7907 51 91.4558H63.0992C63.2975 93.9931 64.124 96.1075 65.5785 97.7991C67.0331 99.4256 69.1157 100.467 71.8264 100.922V79.4524C67.3967 78.3463 63.7934 77.2403 61.0165 76.1343C58.2397 74.9633 55.8595 73.1416 53.876 70.6693C51.9587 68.1971 51 64.814 51 60.5201C51 55.1202 52.9174 50.6636 56.7521 47.1504C60.5868 43.5721 65.6116 41.4902 71.8264 40.9047V33H78.2727V40.9047C84.0909 41.4252 88.7521 43.2468 92.2562 46.3697C95.8264 49.4275 97.843 53.6563 98.3058 59.0563H86.2066C86.0083 57.0394 85.2149 55.2503 83.8264 53.6889C82.438 52.0624 80.5868 50.9564 78.2727 50.3708V71.4501C82.7025 72.491 86.3058 73.597 89.0826 74.7681C91.8595 75.8741 94.2066 77.6632 96.124 80.1355C98.0413 82.5427 99 85.8932 99 90.1871ZM62.5041 59.9346C62.5041 62.602 63.2975 64.6839 64.8843 66.1803C66.5372 67.6766 68.8512 68.8802 71.8264 69.791V50.0781C68.9835 50.4034 66.7025 51.4118 64.9835 53.1033C63.3306 54.7949 62.5041 57.0719 62.5041 59.9346ZM78.2727 100.922C81.1818 100.467 83.4628 99.328 85.1157 97.5063C86.7686 95.6196 87.595 93.375 87.595 90.7727C87.595 88.1703 86.7686 86.1535 85.1157 84.7222C83.5289 83.2258 81.2479 82.0222 78.2727 81.1114V100.922Z" fill="#FCAE1D"/>
</svg>
