<svg width="120" height="151" viewBox="0 0 120 151" fill="none" xmlns="http://www.w3.org/2000/svg">
<ellipse cx="50" cy="75" rx="50" ry="75" fill="#6D5000"/>
<path d="M70 0H50V10.5H70V0Z" fill="#6D5000"/>
<path d="M70 140H50V150.5H70V140Z" fill="#6D5000"/>
<ellipse cx="70" cy="75" rx="50" ry="75" fill="#FDC93A"/>
<ellipse cx="70" cy="75" rx="40" ry="60" fill="#6D5000"/>
<path d="M86 90.1871C86 93.4401 85.449 96.4979 84.3471 99.3605C83.2893 102.223 81.7025 104.63 79.5868 106.582C77.5152 108.534 75.0468 109.705 72.1818 110.095V118H67.8843V110.095C63.741 109.51 60.3912 107.591 57.8347 104.338C55.2782 101.085 54 96.7907 54 91.4558H62.0661C62.1983 93.9931 62.7493 96.1075 63.719 97.7991C64.6887 99.4256 66.0771 100.467 67.8843 100.922V79.4524C64.9311 78.3463 62.5289 77.2403 60.6777 76.1343C58.8264 74.9633 57.2397 73.1416 55.9174 70.6693C54.6391 68.1971 54 64.814 54 60.5201C54 55.1202 55.2782 50.6636 57.8347 47.1504C60.3912 43.5721 63.741 41.4902 67.8843 40.9047V33H72.1818V40.9047C76.0606 41.4252 79.168 43.2468 81.5041 46.3697C83.8843 49.4275 85.2287 53.6563 85.5372 59.0563H77.4711C77.3388 57.0394 76.8099 55.2503 75.8843 53.6889C74.9587 52.0624 73.7245 50.9564 72.1818 50.3708V71.4501C75.135 72.491 77.5372 73.597 79.3884 74.7681C81.2397 75.8741 82.8044 77.6632 84.0826 80.1355C85.3609 82.5427 86 85.8932 86 90.1871ZM61.6694 59.9346C61.6694 62.602 62.1983 64.6839 63.2562 66.1803C64.3581 67.6766 65.9008 68.8802 67.8843 69.791V50.0781C65.989 50.4034 64.4683 51.4118 63.3223 53.1033C62.2204 54.7949 61.6694 57.0719 61.6694 59.9346ZM72.1818 100.922C74.1212 100.467 75.6419 99.328 76.7438 97.5063C77.8457 95.6196 78.3967 93.375 78.3967 90.7727C78.3967 88.1703 77.8457 86.1535 76.7438 84.7222C75.6859 83.2258 74.1653 82.0222 72.1818 81.1114V100.922Z" fill="#FCAE1D"/>
</svg>
