<svg width="80" height="151" viewBox="0 0 80 151" fill="none" xmlns="http://www.w3.org/2000/svg">
<ellipse cx="30" cy="75" rx="30" ry="75" fill="#6D5000"/>
<path d="M50 0H30V10.5H50V0Z" fill="#6D5000"/>
<path d="M50 140H30V150.5H50V140Z" fill="#6D5000"/>
<ellipse cx="50" cy="75" rx="30" ry="75" fill="#FDC93A"/>
<ellipse cx="50" cy="75" rx="24" ry="60" fill="#6D5000"/>
<path d="M59.5999 90.1871C59.5999 93.4401 59.2693 96.4979 58.6082 99.3605C57.9735 102.223 57.0214 104.63 55.752 106.582C54.509 108.534 53.028 109.705 51.309 110.095V118H48.7305V110.095C46.2445 109.51 44.2346 107.591 42.7007 104.338C41.1668 101.085 40.3999 96.7907 40.3999 91.4558H45.2396C45.3189 93.9931 45.6495 96.1075 46.2313 97.7991C46.8131 99.4256 47.6462 100.467 48.7305 100.922V79.4524C46.9586 78.3463 45.5173 77.2403 44.4065 76.1343C43.2958 74.9633 42.3437 73.1416 41.5503 70.6693C40.7834 68.1971 40.3999 64.814 40.3999 60.5201C40.3999 55.1202 41.1668 50.6636 42.7007 47.1504C44.2346 43.5721 46.2445 41.4902 48.7305 40.9047V33H51.309V40.9047C53.6363 41.4252 55.5007 43.2468 56.9024 46.3697C58.3305 49.4275 59.1371 53.6563 59.3222 59.0563H54.4825C54.4032 57.0394 54.0859 55.2503 53.5305 53.6889C52.9751 52.0624 52.2346 50.9564 51.309 50.3708V71.4501C53.0809 72.491 54.5222 73.597 55.633 74.7681C56.7437 75.8741 57.6825 77.6632 58.4495 80.1355C59.2164 82.5427 59.5999 85.8932 59.5999 90.1871ZM45.0016 59.9346C45.0016 62.602 45.3189 64.6839 45.9536 66.1803C46.6148 67.6766 47.5404 68.8802 48.7305 69.791V50.0781C47.5933 50.4034 46.6809 51.4118 45.9933 53.1033C45.3321 54.7949 45.0016 57.0719 45.0016 59.9346ZM51.309 100.922C52.4726 100.467 53.385 99.328 54.0462 97.5063C54.7073 95.6196 55.0379 93.375 55.0379 90.7727C55.0379 88.1703 54.7073 86.1535 54.0462 84.7222C53.4115 83.2258 52.4991 82.0222 51.309 81.1114V100.922Z" fill="#FCAE1D"/>
</svg>
