<svg width="90" height="151" viewBox="0 0 90 151" fill="none" xmlns="http://www.w3.org/2000/svg">
<ellipse cx="35" cy="75" rx="35" ry="75" fill="#6D5000"/>
<path d="M55 0H35V10.5H55V0Z" fill="#6D5000"/>
<path d="M55 140H35V150.5H55V140Z" fill="#6D5000"/>
<ellipse cx="55" cy="75" rx="35" ry="75" fill="#FDC93A"/>
<ellipse cx="55" cy="75" rx="28" ry="60" fill="#6D5000"/>
<path d="M66.1998 90.1871C66.1998 93.4401 65.8141 96.4979 65.0428 99.3605C64.3023 102.223 63.1915 104.63 61.7105 106.582C60.2604 108.534 58.5326 109.705 56.5271 110.095V118H53.5188V110.095C50.6185 109.51 48.2736 107.591 46.4841 104.338C44.6946 101.085 43.7998 96.7907 43.7998 91.4558H49.4461C49.5386 93.9931 49.9243 96.1075 50.6031 97.7991C51.2819 99.4256 52.2538 100.467 53.5188 100.922V79.4524C51.4516 78.3463 49.7701 77.2403 48.4742 76.1343C47.1783 74.9633 46.0676 73.1416 45.142 70.6693C44.2472 68.1971 43.7998 64.814 43.7998 60.5201C43.7998 55.1202 44.6946 50.6636 46.4841 47.1504C48.2736 43.5721 50.6185 41.4902 53.5188 40.9047V33H56.5271V40.9047C59.2422 41.4252 61.4174 43.2468 63.0527 46.3697C64.7188 49.4275 65.6599 53.6563 65.8758 59.0563H60.2296C60.137 57.0394 59.7667 55.2503 59.1188 53.6889C58.4709 52.0624 57.607 50.9564 56.5271 50.3708V71.4501C58.5943 72.491 60.2758 73.597 61.5717 74.7681C62.8676 75.8741 63.9629 77.6632 64.8577 80.1355C65.7524 82.5427 66.1998 85.8932 66.1998 90.1871ZM49.1684 59.9346C49.1684 62.602 49.5386 64.6839 50.2791 66.1803C51.0505 67.6766 52.1304 68.8802 53.5188 69.791V50.0781C52.1921 50.4034 51.1276 51.4118 50.3254 53.1033C49.5541 54.7949 49.1684 57.0719 49.1684 59.9346ZM56.5271 100.922C57.8847 100.467 58.9491 99.328 59.7205 97.5063C60.4918 95.6196 60.8775 93.375 60.8775 90.7727C60.8775 88.1703 60.4918 86.1535 59.7205 84.7222C58.98 83.2258 57.9155 82.0222 56.5271 81.1114V100.922Z" fill="#FCAE1D"/>
</svg>
