<svg width="30" height="151" viewBox="0 0 30 151" fill="none" xmlns="http://www.w3.org/2000/svg">
<ellipse cx="5" cy="75.0002" rx="5" ry="75" fill="#6D5000"/>
<path d="M25 0.000152588H5V76.0002H25V0.000152588Z" fill="#6D5000"/>
<path d="M25 76.0001H5V151H25V76.0001Z" fill="#6D5000"/>
<ellipse cx="25" cy="75.0002" rx="5" ry="75" fill="#FDC93A"/>
<ellipse cx="25" cy="75.0002" rx="4" ry="60" fill="#6D5000"/>
<path d="M26.6 90.1873C26.6 93.4403 26.5449 96.4981 26.4347 99.3607C26.3289 102.223 26.1703 104.63 25.9587 106.582C25.7515 108.534 25.5047 109.705 25.2182 110.095V118H24.7885V110.095C24.3741 109.51 24.0391 107.591 23.7835 104.338C23.5278 101.085 23.4 96.7908 23.4 91.456H24.2066C24.2199 93.9933 24.275 96.1077 24.3719 97.7992C24.4689 99.4257 24.6077 100.467 24.7885 100.922V79.4525C24.4931 78.3465 24.2529 77.2405 24.0678 76.1345C23.8827 74.9634 23.724 73.1418 23.5918 70.6695C23.4639 68.1972 23.4 64.8142 23.4 60.5202C23.4 55.1203 23.5278 50.6638 23.7835 47.1506C24.0391 43.5723 24.3741 41.4904 24.7885 40.9049V33.0002H25.2182V40.9049C25.6061 41.4253 25.9168 43.247 26.1504 46.3698C26.3885 49.4276 26.5229 53.6565 26.5537 59.0564H25.7471C25.7339 57.0396 25.681 55.2504 25.5885 53.689C25.4959 52.0625 25.3725 50.9565 25.2182 50.371V71.4502C25.5135 72.4912 25.7537 73.5972 25.9389 74.7682C26.124 75.8742 26.2805 77.6634 26.4083 80.1356C26.5361 82.5428 26.6 85.8934 26.6 90.1873ZM24.167 59.9347C24.167 62.6021 24.2199 64.684 24.3256 66.1804C24.4358 67.6768 24.5901 68.8804 24.7885 69.7912V50.0782C24.5989 50.4035 24.4469 51.4119 24.3323 53.1035C24.2221 54.795 24.167 57.0721 24.167 59.9347ZM25.2182 100.922C25.4121 100.467 25.5642 99.3281 25.6744 97.5065C25.7846 95.6198 25.8397 93.3752 25.8397 90.7728C25.8397 88.1705 25.7846 86.1536 25.6744 84.7223C25.5686 83.2259 25.4166 82.0224 25.2182 81.1115V100.922Z" fill="#FCAE1D"/>
</svg>
