<svg width="50" height="150" viewBox="0 0 50 150" fill="none" xmlns="http://www.w3.org/2000/svg">
<ellipse cx="35" cy="75" rx="15" ry="75" fill="#6D5000"/>
<path d="M35 0H15V76H35V0Z" fill="#6D5000"/>
<path d="M35 76H15V150H35V76Z" fill="#6D5000"/>
<ellipse cx="15" cy="75" rx="15" ry="75" fill="#FDC93A"/>
<ellipse cx="15" cy="75" rx="12" ry="60" fill="#6D5000"/>
<path d="M19.8 90.1871C19.8 93.4401 19.6347 96.4979 19.3041 99.3605C18.9868 102.223 18.5108 104.63 17.876 106.582C17.2546 108.534 16.5141 109.705 15.6546 110.095V118H14.3653V110.095C13.1223 109.51 12.1174 107.591 11.3504 104.338C10.5835 101.085 10.2 96.7907 10.2 91.4558H12.6198C12.6595 93.9931 12.8248 96.1075 13.1157 97.7991C13.4066 99.4256 13.8232 100.467 14.3653 100.922V79.4524C13.4794 78.3463 12.7587 77.2403 12.2033 76.1343C11.6479 74.9633 11.1719 73.1416 10.7752 70.6693C10.3917 68.1971 10.2 64.814 10.2 60.5201C10.2 55.1202 10.5835 50.6636 11.3504 47.1504C12.1174 43.5721 13.1223 41.4902 14.3653 40.9047V33H15.6546V40.9047C16.8182 41.4252 17.7504 43.2468 18.4513 46.3697C19.1653 49.4275 19.5686 53.6563 19.6612 59.0563H17.2413C17.2017 57.0394 17.043 55.2503 16.7653 53.6889C16.4876 52.0624 16.1174 50.9564 15.6546 50.3708V71.4501C16.5405 72.491 17.2612 73.597 17.8165 74.7681C18.3719 75.8741 18.8413 77.6632 19.2248 80.1355C19.6083 82.5427 19.8 85.8932 19.8 90.1871ZM12.5008 59.9346C12.5008 62.602 12.6595 64.6839 12.9769 66.1803C13.3075 67.6766 13.7703 68.8802 14.3653 69.791V50.0781C13.7967 50.4034 13.3405 51.4118 12.9967 53.1033C12.6661 54.7949 12.5008 57.0719 12.5008 59.9346ZM15.6546 100.922C16.2364 100.467 16.6926 99.328 17.0232 97.5063C17.3537 95.6196 17.519 93.375 17.519 90.7727C17.519 88.1703 17.3537 86.1535 17.0232 84.7222C16.7058 83.2258 16.2496 82.0222 15.6546 81.1114V100.922Z" fill="#FCAE1D"/>
</svg>
