<svg width="80" height="151" viewBox="0 0 80 151" fill="none" xmlns="http://www.w3.org/2000/svg">
<ellipse cx="50" cy="75" rx="30" ry="75" fill="#6D5000"/>
<path d="M49 0H30V11H49V0Z" fill="#6D5000"/>
<path d="M49 140H30V151H49V140Z" fill="#6D5000"/>
<ellipse cx="30" cy="75" rx="30" ry="75" fill="#FDC93A"/>
<ellipse cx="30" cy="75" rx="24" ry="60" fill="#6D5000"/>
<path d="M39.5999 90.1871C39.5999 93.4401 39.2693 96.4979 38.6082 99.3605C37.9735 102.223 37.0214 104.63 35.752 106.582C34.509 108.534 33.028 109.705 31.309 110.095V118H28.7305V110.095C26.2445 109.51 24.2346 107.591 22.7007 104.338C21.1668 101.085 20.3999 96.7907 20.3999 91.4558H25.2396C25.3189 93.9931 25.6495 96.1075 26.2313 97.7991C26.8131 99.4256 27.6462 100.467 28.7305 100.922V79.4524C26.9586 78.3463 25.5173 77.2403 24.4065 76.1343C23.2958 74.9633 22.3437 73.1416 21.5503 70.6693C20.7834 68.1971 20.3999 64.814 20.3999 60.5201C20.3999 55.1202 21.1668 50.6636 22.7007 47.1504C24.2346 43.5721 26.2445 41.4902 28.7305 40.9047V33H31.309V40.9047C33.6363 41.4252 35.5007 43.2468 36.9024 46.3697C38.3305 49.4275 39.1371 53.6563 39.3222 59.0563H34.4825C34.4032 57.0394 34.0859 55.2503 33.5305 53.6889C32.9751 52.0624 32.2346 50.9564 31.309 50.3708V71.4501C33.0809 72.491 34.5222 73.597 35.633 74.7681C36.7437 75.8741 37.6825 77.6632 38.4495 80.1355C39.2164 82.5427 39.5999 85.8932 39.5999 90.1871ZM25.0016 59.9346C25.0016 62.602 25.3189 64.6839 25.9536 66.1803C26.6148 67.6766 27.5404 68.8802 28.7305 69.791V50.0781C27.5933 50.4034 26.6809 51.4118 25.9933 53.1033C25.3321 54.7949 25.0016 57.0719 25.0016 59.9346ZM31.309 100.922C32.4726 100.467 33.385 99.328 34.0462 97.5063C34.7073 95.6196 35.0379 93.375 35.0379 90.7727C35.0379 88.1703 34.7073 86.1535 34.0462 84.7222C33.4115 83.2258 32.4991 82.0222 31.309 81.1114V100.922Z" fill="#FCAE1D"/>
</svg>
